<svg width="909" height="169" viewBox="0 0 909 169" fill="none" xmlns="http://www.w3.org/2000/svg">
<path d="M308.197 21.4616H302.658C302.445 20.2779 302.048 19.2363 301.468 18.3366C300.888 17.437 300.178 16.6735 299.337 16.0462C298.497 15.4188 297.556 14.9453 296.514 14.6257C295.484 14.3061 294.389 14.1463 293.229 14.1463C291.134 14.1463 289.258 14.6731 287.601 15.7266C285.955 16.7801 284.653 18.3248 283.695 20.3608C282.748 22.3968 282.274 24.8826 282.274 27.8182C282.274 30.7775 282.748 33.2751 283.695 35.3111C284.653 37.3471 285.961 38.8859 287.619 39.9276C289.276 40.9692 291.14 41.4901 293.212 41.4901C294.36 41.4901 295.449 41.3362 296.479 41.0284C297.52 40.7088 298.461 40.2412 299.302 39.6257C300.142 39.0102 300.853 38.2585 301.433 37.3707C302.024 36.4711 302.433 35.4413 302.658 34.2812L308.197 34.299C307.902 36.0864 307.327 37.7318 306.475 39.2351C305.635 40.7266 304.552 42.0168 303.226 43.1058C301.912 44.183 300.409 45.0175 298.716 45.6094C297.023 46.2012 295.177 46.4972 293.176 46.4972C290.027 46.4972 287.222 45.7514 284.76 44.2599C282.298 42.7566 280.357 40.6082 278.936 37.8146C277.527 35.0211 276.823 31.6889 276.823 27.8182C276.823 23.9356 277.533 20.6035 278.954 17.8217C280.374 15.0282 282.316 12.8857 284.778 11.3942C287.24 9.89086 290.039 9.1392 293.176 9.1392C295.106 9.1392 296.905 9.41738 298.574 9.97372C300.255 10.5182 301.764 11.3232 303.102 12.3885C304.439 13.442 305.546 14.7322 306.422 16.2592C307.298 17.7744 307.89 19.5085 308.197 21.4616ZM324.074 46.5504C321.518 46.5504 319.286 45.9645 317.381 44.7926C315.475 43.6207 313.995 41.9813 312.942 39.8743C311.888 37.7673 311.361 35.3052 311.361 32.4879C311.361 29.6589 311.888 27.1849 312.942 25.0661C313.995 22.9472 315.475 21.3018 317.381 20.13C319.286 18.9581 321.518 18.3722 324.074 18.3722C326.631 18.3722 328.863 18.9581 330.768 20.13C332.674 21.3018 334.154 22.9472 335.207 25.0661C336.261 27.1849 336.787 29.6589 336.787 32.4879C336.787 35.3052 336.261 37.7673 335.207 39.8743C334.154 41.9813 332.674 43.6207 330.768 44.7926C328.863 45.9645 326.631 46.5504 324.074 46.5504ZM324.092 42.0938C325.749 42.0938 327.122 41.6558 328.211 40.7798C329.3 39.9039 330.105 38.7379 330.626 37.282C331.159 35.826 331.425 34.2221 331.425 32.4702C331.425 30.7301 331.159 29.1321 330.626 27.6761C330.105 26.2083 329.3 25.0305 328.211 24.1428C327.122 23.255 325.749 22.8111 324.092 22.8111C322.423 22.8111 321.038 23.255 319.937 24.1428C318.848 25.0305 318.037 26.2083 317.505 27.6761C316.984 29.1321 316.724 30.7301 316.724 32.4702C316.724 34.2221 316.984 35.826 317.505 37.282C318.037 38.7379 318.848 39.9039 319.937 40.7798C321.038 41.6558 322.423 42.0938 324.092 42.0938ZM353.943 18.7273V22.9886H338.531V18.7273H353.943ZM342.757 46V15.5668C342.757 13.8622 343.13 12.4477 343.875 11.3232C344.621 10.1868 345.609 9.34043 346.841 8.78409C348.072 8.21591 349.409 7.93182 350.853 7.93182C351.919 7.93182 352.83 8.02059 353.588 8.19815C354.345 8.36387 354.908 8.51775 355.275 8.6598L354.032 12.9567C353.783 12.8857 353.463 12.8028 353.073 12.7081C352.682 12.6016 352.209 12.5483 351.652 12.5483C350.362 12.5483 349.439 12.8679 348.882 13.5071C348.338 14.1463 348.066 15.0696 348.066 16.277V46H342.757ZM357.67 46V18.7273H362.979V46H357.67ZM360.352 14.5192C359.428 14.5192 358.635 14.2114 357.972 13.5959C357.321 12.9685 356.996 12.2228 356.996 11.3587C356.996 10.4827 357.321 9.73698 357.972 9.12145C358.635 8.49408 359.428 8.1804 360.352 8.1804C361.275 8.1804 362.062 8.49408 362.713 9.12145C363.376 9.73698 363.707 10.4827 363.707 11.3587C363.707 12.2228 363.376 12.9685 362.713 13.5959C362.062 14.2114 361.275 14.5192 360.352 14.5192ZM373.681 29.8068V46H368.372V18.7273H373.468V23.1662H373.805C374.432 21.7221 375.415 20.562 376.752 19.6861C378.102 18.8101 379.8 18.3722 381.848 18.3722C383.707 18.3722 385.334 18.7628 386.731 19.544C388.128 20.3134 389.211 21.4616 389.98 22.9886C390.75 24.5156 391.134 26.4036 391.134 28.6527V46H385.825V29.2919C385.825 27.3151 385.311 25.7704 384.281 24.6577C383.251 23.5331 381.836 22.9709 380.037 22.9709C378.806 22.9709 377.711 23.2372 376.752 23.7699C375.805 24.3026 375.054 25.0838 374.497 26.1136C373.953 27.1316 373.681 28.3627 373.681 29.8068ZM404.441 46.6037C402.713 46.6037 401.151 46.2841 399.754 45.6449C398.357 44.9938 397.25 44.0528 396.433 42.8217C395.628 41.5907 395.226 40.0814 395.226 38.294C395.226 36.7552 395.522 35.4886 396.114 34.4943C396.706 33.5 397.505 32.7128 398.511 32.1328C399.517 31.5528 400.642 31.1148 401.884 30.8189C403.127 30.523 404.394 30.2981 405.684 30.1442C407.318 29.9548 408.643 29.8009 409.661 29.6825C410.679 29.5523 411.419 29.3452 411.881 29.0611C412.343 28.777 412.573 28.3153 412.573 27.6761V27.5518C412.573 26.0012 412.135 24.7997 411.259 23.9474C410.395 23.0952 409.105 22.669 407.389 22.669C405.601 22.669 404.193 23.0656 403.163 23.8587C402.145 24.6399 401.441 25.5099 401.05 26.4688L396.061 25.3324C396.652 23.6752 397.517 22.3376 398.653 21.3196C399.801 20.2898 401.121 19.544 402.612 19.0824C404.104 18.6089 405.672 18.3722 407.318 18.3722C408.407 18.3722 409.561 18.5024 410.78 18.7628C412.011 19.0114 413.159 19.473 414.225 20.1477C415.302 20.8224 416.184 21.7872 416.87 23.0419C417.557 24.2848 417.9 25.9006 417.9 27.8892V46H412.715V42.2713H412.502C412.159 42.9579 411.644 43.6326 410.958 44.2955C410.271 44.9583 409.389 45.5088 408.312 45.9467C407.235 46.3847 405.945 46.6037 404.441 46.6037ZM405.595 42.3423C407.063 42.3423 408.318 42.0523 409.36 41.4723C410.413 40.8923 411.212 40.1347 411.757 39.1996C412.313 38.2526 412.591 37.2405 412.591 36.1634V32.6477C412.402 32.8371 412.035 33.0147 411.49 33.1804C410.958 33.3343 410.348 33.4704 409.661 33.5888C408.975 33.6953 408.306 33.7959 407.655 33.8906C407.004 33.9735 406.459 34.0445 406.021 34.1037C404.992 34.2339 404.051 34.4529 403.198 34.7607C402.358 35.0684 401.683 35.5123 401.174 36.0923C400.677 36.6605 400.428 37.4181 400.428 38.3651C400.428 39.679 400.914 40.6733 401.884 41.348C402.855 42.0109 404.092 42.3423 405.595 42.3423ZM428.53 29.8068V46H423.221V18.7273H428.317V23.1662H428.654C429.282 21.7221 430.264 20.562 431.602 19.6861C432.951 18.8101 434.65 18.3722 436.698 18.3722C438.556 18.3722 440.184 18.7628 441.581 19.544C442.977 20.3134 444.06 21.4616 444.83 22.9886C445.599 24.5156 445.984 26.4036 445.984 28.6527V46H440.675V29.2919C440.675 27.3151 440.16 25.7704 439.13 24.6577C438.1 23.5331 436.686 22.9709 434.887 22.9709C433.656 22.9709 432.561 23.2372 431.602 23.7699C430.655 24.3026 429.903 25.0838 429.347 26.1136C428.802 27.1316 428.53 28.3627 428.53 29.8068ZM462.842 46.5504C460.202 46.5504 457.93 45.9527 456.024 44.7571C454.13 43.5497 452.674 41.8866 451.656 39.7678C450.638 37.6489 450.129 35.2223 450.129 32.4879C450.129 29.718 450.65 27.2737 451.691 25.1548C452.733 23.0241 454.201 21.361 456.095 20.1655C457.989 18.9699 460.22 18.3722 462.789 18.3722C464.86 18.3722 466.707 18.7569 468.328 19.5263C469.95 20.2839 471.258 21.3492 472.252 22.7223C473.259 24.0954 473.856 25.6993 474.046 27.5341H468.879C468.595 26.2557 467.944 25.1548 466.926 24.2315C465.92 23.3082 464.57 22.8466 462.877 22.8466C461.398 22.8466 460.102 23.2372 458.989 24.0185C457.888 24.7879 457.03 25.8887 456.414 27.321C455.799 28.7415 455.491 30.4223 455.491 32.3636C455.491 34.3523 455.793 36.0687 456.397 37.5128C457 38.9569 457.853 40.0755 458.953 40.8686C460.066 41.6617 461.374 42.0582 462.877 42.0582C463.884 42.0582 464.795 41.8748 465.612 41.5078C466.44 41.129 467.133 40.5904 467.689 39.892C468.257 39.1937 468.654 38.3532 468.879 37.3707H474.046C473.856 39.1345 473.282 40.7088 472.324 42.0938C471.365 43.4787 470.08 44.5677 468.471 45.3608C466.873 46.1539 464.996 46.5504 462.842 46.5504ZM489.727 46.5504C487.04 46.5504 484.726 45.9763 482.785 44.8281C480.856 43.6681 479.364 42.0405 478.311 39.9453C477.269 37.8383 476.748 35.3703 476.748 32.5412C476.748 29.7476 477.269 27.2855 478.311 25.1548C479.364 23.0241 480.832 21.361 482.714 20.1655C484.608 18.9699 486.821 18.3722 489.355 18.3722C490.893 18.3722 492.385 18.6267 493.829 19.1357C495.273 19.6446 496.569 20.4437 497.718 21.5327C498.866 22.6217 499.771 24.0362 500.434 25.7763C501.097 27.5045 501.428 29.6056 501.428 32.0795V33.9616H479.749V29.9844H496.226C496.226 28.5876 495.942 27.3506 495.374 26.2734C494.806 25.1844 494.007 24.3262 492.977 23.6989C491.959 23.0715 490.763 22.7578 489.39 22.7578C487.899 22.7578 486.597 23.1248 485.484 23.8587C484.383 24.5807 483.531 25.5277 482.927 26.6996C482.335 27.8596 482.039 29.1203 482.039 30.4815V33.5888C482.039 35.4117 482.359 36.9624 482.998 38.2408C483.649 39.5192 484.555 40.4957 485.715 41.1705C486.875 41.8333 488.23 42.1648 489.781 42.1648C490.787 42.1648 491.704 42.0227 492.533 41.7386C493.361 41.4427 494.078 41.0047 494.681 40.4247C495.285 39.8447 495.747 39.1286 496.066 38.2763L501.091 39.1818C500.689 40.6615 499.967 41.9576 498.925 43.0703C497.895 44.1712 496.599 45.0294 495.036 45.6449C493.486 46.2486 491.716 46.5504 489.727 46.5504ZM486.958 15.0874L491.112 6.90199H496.705L491.201 15.0874H486.958ZM517.051 56.2273V18.7273H522.236V23.1484H522.68C522.988 22.5803 523.432 21.9233 524.012 21.1776C524.592 20.4318 525.396 19.7808 526.426 19.2244C527.456 18.6562 528.817 18.3722 530.51 18.3722C532.712 18.3722 534.677 18.9285 536.405 20.0412C538.133 21.1539 539.489 22.7578 540.471 24.853C541.465 26.9482 541.963 29.4695 541.963 32.4169C541.963 35.3643 541.471 37.8916 540.489 39.9986C539.506 42.0937 538.157 43.7095 536.441 44.8459C534.724 45.9704 532.765 46.5327 530.563 46.5327C528.906 46.5327 527.551 46.2545 526.497 45.6982C525.456 45.1418 524.639 44.4908 524.047 43.745C523.455 42.9993 522.999 42.3364 522.68 41.7564H522.36V56.2273H517.051ZM522.254 32.3636C522.254 34.2812 522.532 35.9621 523.088 37.4062C523.645 38.8504 524.45 39.9808 525.503 40.7976C526.557 41.6025 527.847 42.005 529.374 42.005C530.96 42.005 532.286 41.5848 533.351 40.7443C534.416 39.892 535.221 38.7379 535.766 37.282C536.322 35.826 536.6 34.1866 536.6 32.3636C536.6 30.5644 536.328 28.9486 535.784 27.5163C535.251 26.084 534.446 24.9536 533.369 24.125C532.303 23.2964 530.972 22.8821 529.374 22.8821C527.835 22.8821 526.533 23.2786 525.468 24.0717C524.414 24.8648 523.615 25.9716 523.07 27.392C522.526 28.8125 522.254 30.4697 522.254 32.3636ZM554.097 46.6037C552.369 46.6037 550.807 46.2841 549.41 45.6449C548.013 44.9938 546.906 44.0528 546.09 42.8217C545.285 41.5907 544.882 40.0814 544.882 38.294C544.882 36.7552 545.178 35.4886 545.77 34.4943C546.362 33.5 547.161 32.7128 548.167 32.1328C549.173 31.5528 550.298 31.1148 551.541 30.8189C552.784 30.523 554.05 30.2981 555.34 30.1442C556.974 29.9548 558.3 29.8009 559.318 29.6825C560.336 29.5523 561.075 29.3452 561.537 29.0611C561.999 28.777 562.23 28.3153 562.23 27.6761V27.5518C562.23 26.0012 561.792 24.7997 560.916 23.9474C560.052 23.0952 558.761 22.669 557.045 22.669C555.258 22.669 553.849 23.0656 552.819 23.8587C551.801 24.6399 551.097 25.5099 550.706 26.4688L545.717 25.3324C546.309 23.6752 547.173 22.3376 548.309 21.3196C549.457 20.2898 550.777 19.544 552.269 19.0824C553.76 18.6089 555.329 18.3722 556.974 18.3722C558.063 18.3722 559.217 18.5024 560.436 18.7628C561.667 19.0114 562.816 19.473 563.881 20.1477C564.958 20.8224 565.84 21.7872 566.526 23.0419C567.213 24.2848 567.556 25.9006 567.556 27.8892V46H562.372V42.2713H562.159C561.815 42.9579 561.3 43.6326 560.614 44.2955C559.927 44.9583 559.045 45.5088 557.968 45.9467C556.891 46.3847 555.601 46.6037 554.097 46.6037ZM555.252 42.3423C556.719 42.3423 557.974 42.0523 559.016 41.4723C560.069 40.8923 560.868 40.1347 561.413 39.1996C561.969 38.2526 562.247 37.2405 562.247 36.1634V32.6477C562.058 32.8371 561.691 33.0147 561.146 33.1804C560.614 33.3343 560.004 33.4704 559.318 33.5888C558.631 33.6953 557.962 33.7959 557.311 33.8906C556.66 33.9735 556.116 34.0445 555.678 34.1037C554.648 34.2339 553.707 34.4529 552.855 34.7607C552.014 35.0684 551.339 35.5123 550.83 36.0923C550.333 36.6605 550.085 37.4181 550.085 38.3651C550.085 39.679 550.57 40.6733 551.541 41.348C552.511 42.0109 553.748 42.3423 555.252 42.3423ZM572.877 46V18.7273H578.009V23.0597H578.293C578.79 21.5919 579.666 20.4377 580.921 19.5973C582.187 18.745 583.62 18.3189 585.218 18.3189C585.549 18.3189 585.94 18.3307 586.39 18.3544C586.851 18.3781 587.212 18.4077 587.473 18.4432V23.5213C587.26 23.4621 586.881 23.397 586.336 23.326C585.792 23.2431 585.247 23.2017 584.703 23.2017C583.448 23.2017 582.329 23.468 581.347 24.0007C580.376 24.5215 579.607 25.2495 579.039 26.1847C578.471 27.108 578.186 28.1615 578.186 29.3452V46H572.877ZM607.108 9.63636V46H601.799V9.63636H607.108ZM628.255 46.5504C625.568 46.5504 623.254 45.9763 621.312 44.8281C619.383 43.6681 617.891 42.0405 616.838 39.9453C615.796 37.8383 615.275 35.3703 615.275 32.5412C615.275 29.7476 615.796 27.2855 616.838 25.1548C617.891 23.0241 619.359 21.361 621.241 20.1655C623.135 18.9699 625.349 18.3722 627.882 18.3722C629.421 18.3722 630.912 18.6267 632.356 19.1357C633.8 19.6446 635.097 20.4437 636.245 21.5327C637.393 22.6217 638.299 24.0362 638.961 25.7763C639.624 27.5045 639.956 29.6056 639.956 32.0795V33.9616H618.276V29.9844H634.753C634.753 28.5876 634.469 27.3506 633.901 26.2734C633.333 25.1844 632.534 24.3262 631.504 23.6989C630.486 23.0715 629.291 22.7578 627.917 22.7578C626.426 22.7578 625.124 23.1248 624.011 23.8587C622.91 24.5807 622.058 25.5277 621.454 26.6996C620.863 27.8596 620.567 29.1203 620.567 30.4815V33.5888C620.567 35.4117 620.886 36.9624 621.525 38.2408C622.176 39.5192 623.082 40.4957 624.242 41.1705C625.402 41.8333 626.757 42.1648 628.308 42.1648C629.314 42.1648 630.232 42.0227 631.06 41.7386C631.889 41.4427 632.605 41.0047 633.209 40.4247C633.812 39.8447 634.274 39.1286 634.594 38.2763L639.618 39.1818C639.216 40.6615 638.494 41.9576 637.452 43.0703C636.422 44.1712 635.126 45.0294 633.564 45.6449C632.013 46.2486 630.243 46.5504 628.255 46.5504ZM277.569 112.227V74.7273H282.754V79.1484H283.197C283.505 78.5803 283.949 77.9233 284.529 77.1776C285.109 76.4318 285.914 75.7808 286.944 75.2244C287.974 74.6562 289.335 74.3722 291.028 74.3722C293.229 74.3722 295.194 74.9285 296.923 76.0412C298.651 77.1539 300.006 78.7578 300.989 80.853C301.983 82.9482 302.48 85.4695 302.48 88.4169C302.48 91.3643 301.989 93.8916 301.006 95.9986C300.024 98.0937 298.674 99.7095 296.958 100.846C295.242 101.97 293.283 102.533 291.081 102.533C289.424 102.533 288.068 102.254 287.015 101.698C285.973 101.142 285.156 100.491 284.565 99.745C283.973 98.9993 283.517 98.3364 283.197 97.7564H282.878V112.227H277.569ZM282.771 88.3636C282.771 90.2812 283.049 91.9621 283.606 93.4062C284.162 94.8504 284.967 95.9808 286.021 96.7976C287.074 97.6025 288.364 98.005 289.891 98.005C291.478 98.005 292.803 97.5848 293.869 96.7443C294.934 95.892 295.739 94.7379 296.283 93.282C296.84 91.826 297.118 90.1866 297.118 88.3636C297.118 86.5644 296.846 84.9486 296.301 83.5163C295.768 82.084 294.964 80.9536 293.886 80.125C292.821 79.2964 291.489 78.8821 289.891 78.8821C288.353 78.8821 287.05 79.2786 285.985 80.0717C284.932 80.8648 284.133 81.9716 283.588 83.392C283.044 84.8125 282.771 86.4697 282.771 88.3636ZM306.678 102V74.7273H311.81V79.0597H312.094C312.591 77.5919 313.467 76.4377 314.722 75.5973C315.988 74.745 317.42 74.3189 319.018 74.3189C319.35 74.3189 319.741 74.3307 320.19 74.3544C320.652 74.3781 321.013 74.4077 321.273 74.4432V79.5213C321.06 79.4621 320.682 79.397 320.137 79.326C319.593 79.2431 319.048 79.2017 318.504 79.2017C317.249 79.2017 316.13 79.468 315.148 80.0007C314.177 80.5215 313.408 81.2495 312.839 82.1847C312.271 83.108 311.987 84.1615 311.987 85.3452V102H306.678ZM334.629 102.55C332.072 102.55 329.841 101.964 327.935 100.793C326.029 99.6207 324.55 97.9813 323.496 95.8743C322.443 93.7673 321.916 91.3052 321.916 88.4879C321.916 85.6589 322.443 83.1849 323.496 81.0661C324.55 78.9472 326.029 77.3018 327.935 76.13C329.841 74.9581 332.072 74.3722 334.629 74.3722C337.186 74.3722 339.417 74.9581 341.323 76.13C343.229 77.3018 344.708 78.9472 345.762 81.0661C346.815 83.1849 347.342 85.6589 347.342 88.4879C347.342 91.3052 346.815 93.7673 345.762 95.8743C344.708 97.9813 343.229 99.6207 341.323 100.793C339.417 101.964 337.186 102.55 334.629 102.55ZM334.647 98.0938C336.304 98.0938 337.677 97.6558 338.766 96.7798C339.855 95.9039 340.66 94.7379 341.181 93.282C341.714 91.826 341.98 90.2221 341.98 88.4702C341.98 86.7301 341.714 85.1321 341.181 83.6761C340.66 82.2083 339.855 81.0305 338.766 80.1428C337.677 79.255 336.304 78.8111 334.647 78.8111C332.978 78.8111 331.593 79.255 330.492 80.1428C329.403 81.0305 328.592 82.2083 328.059 83.6761C327.539 85.1321 327.278 86.7301 327.278 88.4702C327.278 90.2221 327.539 91.826 328.059 93.282C328.592 94.7379 329.403 95.9039 330.492 96.7798C331.593 97.6558 332.978 98.0938 334.647 98.0938ZM362.953 112.795C360.787 112.795 358.922 112.511 357.36 111.943C355.809 111.375 354.542 110.623 353.56 109.688C352.578 108.753 351.844 107.729 351.358 106.616L355.922 104.734C356.241 105.255 356.667 105.806 357.2 106.386C357.744 106.978 358.478 107.481 359.402 107.895C360.337 108.309 361.538 108.516 363.006 108.516C365.018 108.516 366.681 108.025 367.995 107.043C369.309 106.072 369.966 104.521 369.966 102.391V97.0284H369.629C369.309 97.6084 368.848 98.2536 368.244 98.9638C367.652 99.674 366.835 100.29 365.794 100.81C364.752 101.331 363.397 101.592 361.728 101.592C359.573 101.592 357.632 101.089 355.904 100.082C354.187 99.0644 352.826 97.567 351.82 95.5902C350.826 93.6016 350.328 91.1572 350.328 88.2571C350.328 85.357 350.82 82.8712 351.802 80.7997C352.797 78.7282 354.158 77.142 355.886 76.0412C357.614 74.9285 359.573 74.3722 361.763 74.3722C363.456 74.3722 364.823 74.6562 365.865 75.2244C366.906 75.7808 367.717 76.4318 368.297 77.1776C368.889 77.9233 369.345 78.5803 369.664 79.1484H370.055V74.7273H375.257V102.604C375.257 104.947 374.713 106.871 373.624 108.374C372.535 109.878 371.061 110.99 369.203 111.712C367.356 112.434 365.273 112.795 362.953 112.795ZM362.9 97.1882C364.426 97.1882 365.717 96.8331 366.77 96.1229C367.836 95.4008 368.641 94.371 369.185 93.0334C369.741 91.6839 370.02 90.0682 370.02 88.1861C370.02 86.3513 369.747 84.7356 369.203 83.3388C368.658 81.942 367.859 80.853 366.806 80.0717C365.752 79.2786 364.45 78.8821 362.9 78.8821C361.301 78.8821 359.97 79.2964 358.904 80.125C357.839 80.9418 357.034 82.0544 356.49 83.4631C355.957 84.8717 355.691 86.446 355.691 88.1861C355.691 89.9735 355.963 91.5419 356.507 92.8913C357.052 94.2408 357.857 95.2943 358.922 96.0518C359.999 96.8094 361.325 97.1882 362.9 97.1882ZM380.627 102V74.7273H385.759V79.0597H386.043C386.54 77.5919 387.416 76.4377 388.671 75.5973C389.937 74.745 391.37 74.3189 392.968 74.3189C393.299 74.3189 393.69 74.3307 394.14 74.3544C394.601 74.3781 394.962 74.4077 395.223 74.4432V79.5213C395.01 79.4621 394.631 79.397 394.086 79.326C393.542 79.2431 392.997 79.2017 392.453 79.2017C391.198 79.2017 390.079 79.468 389.097 80.0007C388.126 80.5215 387.357 81.2495 386.789 82.1847C386.221 83.108 385.936 84.1615 385.936 85.3452V102H380.627ZM405.76 102.604C404.031 102.604 402.469 102.284 401.072 101.645C399.675 100.994 398.569 100.053 397.752 98.8217C396.947 97.5907 396.544 96.0814 396.544 94.294C396.544 92.7552 396.84 91.4886 397.432 90.4943C398.024 89.5 398.823 88.7128 399.829 88.1328C400.835 87.5528 401.96 87.1148 403.203 86.8189C404.446 86.523 405.712 86.2981 407.002 86.1442C408.636 85.9548 409.962 85.8009 410.98 85.6825C411.998 85.5523 412.738 85.3452 413.199 85.0611C413.661 84.777 413.892 84.3153 413.892 83.6761V83.5518C413.892 82.0012 413.454 80.7997 412.578 79.9474C411.714 79.0952 410.423 78.669 408.707 78.669C406.92 78.669 405.511 79.0656 404.481 79.8587C403.463 80.6399 402.759 81.5099 402.368 82.4688L397.379 81.3324C397.971 79.6752 398.835 78.3376 399.971 77.3196C401.119 76.2898 402.439 75.544 403.931 75.0824C405.422 74.6089 406.991 74.3722 408.636 74.3722C409.725 74.3722 410.879 74.5024 412.098 74.7628C413.329 75.0114 414.478 75.473 415.543 76.1477C416.62 76.8224 417.502 77.7872 418.189 79.0419C418.875 80.2848 419.218 81.9006 419.218 83.8892V102H414.034V98.2713H413.821C413.477 98.9579 412.962 99.6326 412.276 100.295C411.589 100.958 410.708 101.509 409.63 101.947C408.553 102.385 407.263 102.604 405.76 102.604ZM406.914 98.3423C408.382 98.3423 409.636 98.0523 410.678 97.4723C411.731 96.8923 412.53 96.1347 413.075 95.1996C413.631 94.2526 413.909 93.2405 413.909 92.1634V88.6477C413.72 88.8371 413.353 89.0147 412.809 89.1804C412.276 89.3343 411.666 89.4704 410.98 89.5888C410.293 89.6953 409.624 89.7959 408.973 89.8906C408.322 89.9735 407.778 90.0445 407.34 90.1037C406.31 90.2339 405.369 90.4529 404.517 90.7607C403.676 91.0684 403.002 91.5123 402.493 92.0923C401.995 92.6605 401.747 93.4181 401.747 94.3651C401.747 95.679 402.232 96.6733 403.203 97.348C404.173 98.0109 405.41 98.3423 406.914 98.3423ZM424.54 102V74.7273H429.635V79.1662H429.973C430.541 77.6629 431.47 76.491 432.76 75.6506C434.051 74.7983 435.595 74.3722 437.395 74.3722C439.218 74.3722 440.745 74.7983 441.976 75.6506C443.219 76.5028 444.136 77.6747 444.728 79.1662H445.012C445.663 77.7102 446.699 76.5502 448.119 75.6861C449.54 74.8101 451.232 74.3722 453.197 74.3722C455.671 74.3722 457.689 75.1475 459.252 76.6982C460.826 78.2488 461.613 80.5866 461.613 83.7116V102H456.305V84.2088C456.305 82.3622 455.801 81.0246 454.795 80.196C453.789 79.3674 452.588 78.9531 451.191 78.9531C449.463 78.9531 448.119 79.4858 447.16 80.5511C446.202 81.6046 445.722 82.96 445.722 84.6172V102H440.431V83.8714C440.431 82.3918 439.969 81.2022 439.046 80.3026C438.123 79.4029 436.921 78.9531 435.442 78.9531C434.435 78.9531 433.506 79.2195 432.654 79.7521C431.814 80.273 431.133 81.0009 430.612 81.9361C430.103 82.8712 429.849 83.9543 429.849 85.1854V102H424.54ZM466.979 102V74.7273H472.075V79.1662H472.412C472.98 77.6629 473.91 76.491 475.2 75.6506C476.49 74.7983 478.035 74.3722 479.834 74.3722C481.657 74.3722 483.184 74.7983 484.415 75.6506C485.658 76.5028 486.575 77.6747 487.167 79.1662H487.451C488.102 77.7102 489.138 76.5502 490.559 75.6861C491.979 74.8101 493.672 74.3722 495.637 74.3722C498.111 74.3722 500.129 75.1475 501.691 76.6982C503.266 78.2488 504.053 80.5866 504.053 83.7116V102H498.744V84.2088C498.744 82.3622 498.241 81.0246 497.235 80.196C496.229 79.3674 495.027 78.9531 493.63 78.9531C491.902 78.9531 490.559 79.4858 489.6 80.5511C488.641 81.6046 488.162 82.96 488.162 84.6172V102H482.87V83.8714C482.87 82.3918 482.409 81.2022 481.485 80.3026C480.562 79.4029 479.361 78.9531 477.881 78.9531C476.875 78.9531 475.946 79.2195 475.093 79.7521C474.253 80.273 473.572 81.0009 473.051 81.9361C472.542 82.8712 472.288 83.9543 472.288 85.1854V102H466.979ZM521.173 102.55C518.486 102.55 516.172 101.976 514.23 100.828C512.301 99.6681 510.809 98.0405 509.756 95.9453C508.714 93.8383 508.193 91.3703 508.193 88.5412C508.193 85.7476 508.714 83.2855 509.756 81.1548C510.809 79.0241 512.277 77.361 514.159 76.1655C516.053 74.9699 518.267 74.3722 520.8 74.3722C522.339 74.3722 523.83 74.6267 525.274 75.1357C526.718 75.6446 528.015 76.4437 529.163 77.5327C530.311 78.6217 531.217 80.0362 531.879 81.7763C532.542 83.5045 532.874 85.6056 532.874 88.0795V89.9616H511.194V85.9844H527.671C527.671 84.5876 527.387 83.3506 526.819 82.2734C526.251 81.1844 525.452 80.3262 524.422 79.6989C523.404 79.0715 522.209 78.7578 520.835 78.7578C519.344 78.7578 518.042 79.1248 516.929 79.8587C515.828 80.5807 514.976 81.5277 514.372 82.6996C513.78 83.8596 513.485 85.1203 513.485 86.4815V89.5888C513.485 91.4117 513.804 92.9624 514.443 94.2408C515.094 95.5192 516 96.4957 517.16 97.1705C518.32 97.8333 519.675 98.1648 521.226 98.1648C522.232 98.1648 523.15 98.0227 523.978 97.7386C524.807 97.4427 525.523 97.0047 526.127 96.4247C526.73 95.8447 527.192 95.1286 527.512 94.2763L532.536 95.1818C532.134 96.6615 531.412 97.9576 530.37 99.0703C529.34 100.171 528.044 101.029 526.482 101.645C524.931 102.249 523.161 102.55 521.173 102.55ZM548.923 102V65.6364H571.721V70.3594H554.409V81.4389H570.531V86.1442H554.409V97.277H571.934V102H548.923ZM595.65 90.6896V74.7273H600.977V102H595.756V97.277H595.472C594.845 98.733 593.839 99.9463 592.454 100.917C591.081 101.876 589.37 102.355 587.322 102.355C585.571 102.355 584.02 101.97 582.67 101.201C581.333 100.42 580.279 99.2656 579.51 97.7386C578.752 96.2116 578.374 94.3236 578.374 92.0746V74.7273H583.683V91.4354C583.683 93.2938 584.197 94.7734 585.227 95.8743C586.257 96.9751 587.595 97.5256 589.24 97.5256C590.234 97.5256 591.223 97.277 592.205 96.7798C593.2 96.2827 594.022 95.531 594.673 94.5249C595.336 93.5187 595.662 92.2403 595.65 90.6896ZM609.86 102V74.7273H614.991V79.0597H615.275C615.773 77.5919 616.648 76.4377 617.903 75.5973C619.17 74.745 620.602 74.3189 622.2 74.3189C622.532 74.3189 622.922 74.3307 623.372 74.3544C623.834 74.3781 624.195 74.4077 624.455 74.4432V79.5213C624.242 79.4621 623.863 79.397 623.319 79.326C622.774 79.2431 622.23 79.2017 621.685 79.2017C620.43 79.2017 619.312 79.468 618.329 80.0007C617.359 80.5215 616.589 81.2495 616.021 82.1847C615.453 83.108 615.169 84.1615 615.169 85.3452V102H609.86ZM641.311 102.55C638.754 102.55 636.523 101.964 634.617 100.793C632.711 99.6207 631.231 97.9813 630.178 95.8743C629.124 93.7673 628.598 91.3052 628.598 88.4879C628.598 85.6589 629.124 83.1849 630.178 81.0661C631.231 78.9472 632.711 77.3018 634.617 76.13C636.523 74.9581 638.754 74.3722 641.311 74.3722C643.868 74.3722 646.099 74.9581 648.005 76.13C649.91 77.3018 651.39 78.9472 652.444 81.0661C653.497 83.1849 654.024 85.6589 654.024 88.4879C654.024 91.3052 653.497 93.7673 652.444 95.8743C651.39 97.9813 649.91 99.6207 648.005 100.793C646.099 101.964 643.868 102.55 641.311 102.55ZM641.328 98.0938C642.986 98.0938 644.359 97.6558 645.448 96.7798C646.537 95.9039 647.342 94.7379 647.863 93.282C648.395 91.826 648.662 90.2221 648.662 88.4702C648.662 86.7301 648.395 85.1321 647.863 83.6761C647.342 82.2083 646.537 81.0305 645.448 80.1428C644.359 79.255 642.986 78.8111 641.328 78.8111C639.659 78.8111 638.275 79.255 637.174 80.1428C636.085 81.0305 635.274 82.2083 634.741 83.6761C634.22 85.1321 633.96 86.7301 633.96 88.4702C633.96 90.2221 634.22 91.826 634.741 93.282C635.274 94.7379 636.085 95.9039 637.174 96.7798C638.275 97.6558 639.659 98.0938 641.328 98.0938ZM659.7 112.227V74.7273H664.884V79.1484H665.328C665.636 78.5803 666.08 77.9233 666.66 77.1776C667.24 76.4318 668.045 75.7808 669.075 75.2244C670.105 74.6562 671.466 74.3722 673.159 74.3722C675.36 74.3722 677.325 74.9285 679.053 76.0412C680.782 77.1539 682.137 78.7578 683.119 80.853C684.114 82.9482 684.611 85.4695 684.611 88.4169C684.611 91.3643 684.12 93.8916 683.137 95.9986C682.155 98.0937 680.805 99.7095 679.089 100.846C677.373 101.97 675.414 102.533 673.212 102.533C671.555 102.533 670.199 102.254 669.146 101.698C668.104 101.142 667.287 100.491 666.695 99.745C666.104 98.9993 665.648 98.3364 665.328 97.7564H665.009V112.227H659.7ZM664.902 88.3636C664.902 90.2812 665.18 91.9621 665.737 93.4062C666.293 94.8504 667.098 95.9808 668.151 96.7976C669.205 97.6025 670.495 98.005 672.022 98.005C673.608 98.005 674.934 97.5848 675.999 96.7443C677.065 95.892 677.87 94.7379 678.414 93.282C678.971 91.826 679.249 90.1866 679.249 88.3636C679.249 86.5644 678.977 84.9486 678.432 83.5163C677.899 82.084 677.094 80.9536 676.017 80.125C674.952 79.2964 673.62 78.8821 672.022 78.8821C670.483 78.8821 669.181 79.2786 668.116 80.0717C667.062 80.8648 666.263 81.9716 665.719 83.392C665.174 84.8125 664.902 86.4697 664.902 88.3636ZM698.063 102.55C695.376 102.55 693.062 101.976 691.121 100.828C689.191 99.6681 687.7 98.0405 686.646 95.9453C685.605 93.8383 685.084 91.3703 685.084 88.5412C685.084 85.7476 685.605 83.2855 686.646 81.1548C687.7 79.0241 689.168 77.361 691.05 76.1655C692.944 74.9699 695.157 74.3722 697.691 74.3722C699.229 74.3722 700.721 74.6267 702.165 75.1357C703.609 75.6446 704.905 76.4437 706.053 77.5327C707.202 78.6217 708.107 80.0362 708.77 81.7763C709.433 83.5045 709.764 85.6056 709.764 88.0795V89.9616H688.085V85.9844H704.562C704.562 84.5876 704.278 83.3506 703.71 82.2734C703.142 81.1844 702.343 80.3262 701.313 79.6989C700.295 79.0715 699.099 78.7578 697.726 78.7578C696.235 78.7578 694.932 79.1248 693.82 79.8587C692.719 80.5807 691.867 81.5277 691.263 82.6996C690.671 83.8596 690.375 85.1203 690.375 86.4815V89.5888C690.375 91.4117 690.695 92.9624 691.334 94.2408C691.985 95.5192 692.891 96.4957 694.051 97.1705C695.211 97.8333 696.566 98.1648 698.117 98.1648C699.123 98.1648 700.04 98.0227 700.869 97.7386C701.697 97.4427 702.414 97.0047 703.017 96.4247C703.621 95.8447 704.083 95.1286 704.402 94.2763L709.427 95.1818C709.025 96.6615 708.302 97.9576 707.261 99.0703C706.231 100.171 704.935 101.029 703.372 101.645C701.822 102.249 700.052 102.55 698.063 102.55ZM735.875 102.55C733.235 102.55 730.963 101.953 729.057 100.757C727.163 99.5497 725.707 97.8866 724.689 95.7678C723.671 93.6489 723.162 91.2223 723.162 88.4879C723.162 85.718 723.683 83.2737 724.725 81.1548C725.766 79.0241 727.234 77.361 729.128 76.1655C731.022 74.9699 733.253 74.3722 735.822 74.3722C737.893 74.3722 739.74 74.7569 741.362 75.5263C742.983 76.2839 744.291 77.3492 745.286 78.7223C746.292 80.0954 746.89 81.6993 747.079 83.5341H741.912C741.628 82.2557 740.977 81.1548 739.959 80.2315C738.953 79.3082 737.603 78.8466 735.911 78.8466C734.431 78.8466 733.135 79.2372 732.022 80.0185C730.921 80.7879 730.063 81.8887 729.448 83.321C728.832 84.7415 728.524 86.4223 728.524 88.3636C728.524 90.3523 728.826 92.0687 729.43 93.5128C730.034 94.9569 730.886 96.0755 731.987 96.8686C733.099 97.6617 734.407 98.0582 735.911 98.0582C736.917 98.0582 737.828 97.8748 738.645 97.5078C739.474 97.129 740.166 96.5904 740.722 95.892C741.291 95.1937 741.687 94.3532 741.912 93.3707H747.079C746.89 95.1345 746.316 96.7088 745.357 98.0938C744.398 99.4787 743.114 100.568 741.504 101.361C739.906 102.154 738.03 102.55 735.875 102.55ZM752.506 102V74.7273H757.638V79.0597H757.922C758.419 77.5919 759.295 76.4377 760.55 75.5973C761.816 74.745 763.249 74.3189 764.847 74.3189C765.178 74.3189 765.569 74.3307 766.018 74.3544C766.48 74.3781 766.841 74.4077 767.102 74.4432V79.5213C766.888 79.4621 766.51 79.397 765.965 79.326C765.421 79.2431 764.876 79.2017 764.332 79.2017C763.077 79.2017 761.958 79.468 760.976 80.0007C760.005 80.5215 759.236 81.2495 758.668 82.1847C758.099 83.108 757.815 84.1615 757.815 85.3452V102H752.506ZM782.224 102.55C779.537 102.55 777.222 101.976 775.281 100.828C773.352 99.6681 771.86 98.0405 770.807 95.9453C769.765 93.8383 769.244 91.3703 769.244 88.5412C769.244 85.7476 769.765 83.2855 770.807 81.1548C771.86 79.0241 773.328 77.361 775.21 76.1655C777.104 74.9699 779.318 74.3722 781.851 74.3722C783.39 74.3722 784.881 74.6267 786.325 75.1357C787.769 75.6446 789.065 76.4437 790.214 77.5327C791.362 78.6217 792.267 80.0362 792.93 81.7763C793.593 83.5045 793.925 85.6056 793.925 88.0795V89.9616H772.245V85.9844H788.722C788.722 84.5876 788.438 83.3506 787.87 82.2734C787.302 81.1844 786.503 80.3262 785.473 79.6989C784.455 79.0715 783.259 78.7578 781.886 78.7578C780.395 78.7578 779.093 79.1248 777.98 79.8587C776.879 80.5807 776.027 81.5277 775.423 82.6996C774.831 83.8596 774.535 85.1203 774.535 86.4815V89.5888C774.535 91.4117 774.855 92.9624 775.494 94.2408C776.145 95.5192 777.051 96.4957 778.211 97.1705C779.371 97.8333 780.726 98.1648 782.277 98.1648C783.283 98.1648 784.2 98.0227 785.029 97.7386C785.858 97.4427 786.574 97.0047 787.177 96.4247C787.781 95.8447 788.243 95.1286 788.562 94.2763L793.587 95.1818C793.185 96.6615 792.463 97.9576 791.421 99.0703C790.391 100.171 789.095 101.029 787.532 101.645C785.982 102.249 784.212 102.55 782.224 102.55ZM779.454 71.0874L783.608 62.902H789.202L783.697 71.0874H779.454ZM807.502 102.604C805.774 102.604 804.211 102.284 802.814 101.645C801.417 100.994 800.311 100.053 799.494 98.8217C798.689 97.5907 798.287 96.0814 798.287 94.294C798.287 92.7552 798.583 91.4886 799.174 90.4943C799.766 89.5 800.565 88.7128 801.571 88.1328C802.578 87.5528 803.702 87.1148 804.945 86.8189C806.188 86.523 807.454 86.2981 808.745 86.1442C810.378 85.9548 811.704 85.8009 812.722 85.6825C813.74 85.5523 814.48 85.3452 814.941 85.0611C815.403 84.777 815.634 84.3153 815.634 83.6761V83.5518C815.634 82.0012 815.196 80.7997 814.32 79.9474C813.456 79.0952 812.166 78.669 810.449 78.669C808.662 78.669 807.253 79.0656 806.223 79.8587C805.205 80.6399 804.501 81.5099 804.11 82.4688L799.121 81.3324C799.713 79.6752 800.577 78.3376 801.713 77.3196C802.862 76.2898 804.181 75.544 805.673 75.0824C807.164 74.6089 808.733 74.3722 810.378 74.3722C811.467 74.3722 812.621 74.5024 813.841 74.7628C815.072 75.0114 816.22 75.473 817.285 76.1477C818.362 76.8224 819.244 77.7872 819.931 79.0419C820.617 80.2848 820.961 81.9006 820.961 83.8892V102H815.776V98.2713H815.563C815.22 98.9579 814.705 99.6326 814.018 100.295C813.332 100.958 812.45 101.509 811.373 101.947C810.295 102.385 809.005 102.604 807.502 102.604ZM808.656 98.3423C810.124 98.3423 811.378 98.0523 812.42 97.4723C813.474 96.8923 814.273 96.1347 814.817 95.1996C815.373 94.2526 815.652 93.2405 815.652 92.1634V88.6477C815.462 88.8371 815.095 89.0147 814.551 89.1804C814.018 89.3343 813.408 89.4704 812.722 89.5888C812.035 89.6953 811.367 89.7959 810.716 89.8906C810.065 89.9735 809.52 90.0445 809.082 90.1037C808.052 90.2339 807.111 90.4529 806.259 90.7607C805.418 91.0684 804.744 91.5123 804.235 92.0923C803.738 92.6605 803.489 93.4181 803.489 94.3651C803.489 95.679 803.974 96.6733 804.945 97.348C805.916 98.0109 807.153 98.3423 808.656 98.3423ZM838.113 74.7273V78.9886H823.216V74.7273H838.113ZM827.211 68.1932H832.52V93.9922C832.52 95.022 832.673 95.7973 832.981 96.3182C833.289 96.8272 833.685 97.1764 834.171 97.3658C834.668 97.5433 835.207 97.6321 835.787 97.6321C836.213 97.6321 836.586 97.6025 836.905 97.5433C837.225 97.4841 837.473 97.4368 837.651 97.4013L838.61 101.787C838.302 101.905 837.864 102.024 837.296 102.142C836.728 102.272 836.017 102.343 835.165 102.355C833.768 102.379 832.466 102.13 831.259 101.609C830.052 101.089 829.075 100.284 828.329 99.1946C827.583 98.1056 827.211 96.7384 827.211 95.093V68.1932ZM841.335 102V74.7273H846.644V102H841.335ZM844.016 70.5192C843.093 70.5192 842.3 70.2114 841.637 69.5959C840.986 68.9685 840.661 68.2228 840.661 67.3587C840.661 66.4827 840.986 65.737 841.637 65.1214C842.3 64.4941 843.093 64.1804 844.016 64.1804C844.94 64.1804 845.727 64.4941 846.378 65.1214C847.041 65.737 847.372 66.4827 847.372 67.3587C847.372 68.2228 847.041 68.9685 846.378 69.5959C845.727 70.2114 844.94 70.5192 844.016 70.5192ZM873.367 74.7273L863.478 102H857.796L847.888 74.7273H853.588L860.495 95.7145H860.779L867.668 74.7273H873.367ZM885.433 102.55C882.746 102.55 880.432 101.976 878.491 100.828C876.561 99.6681 875.07 98.0405 874.016 95.9453C872.975 93.8383 872.454 91.3703 872.454 88.5412C872.454 85.7476 872.975 83.2855 874.016 81.1548C875.07 79.0241 876.538 77.361 878.42 76.1655C880.314 74.9699 882.527 74.3722 885.06 74.3722C886.599 74.3722 888.091 74.6267 889.535 75.1357C890.979 75.6446 892.275 76.4437 893.423 77.5327C894.572 78.6217 895.477 80.0362 896.14 81.7763C896.803 83.5045 897.134 85.6056 897.134 88.0795V89.9616H875.455V85.9844H891.932C891.932 84.5876 891.648 83.3506 891.08 82.2734C890.511 81.1844 889.712 80.3262 888.683 79.6989C887.665 79.0715 886.469 78.7578 885.096 78.7578C883.604 78.7578 882.302 79.1248 881.19 79.8587C880.089 80.5807 879.237 81.5277 878.633 82.6996C878.041 83.8596 877.745 85.1203 877.745 86.4815V89.5888C877.745 91.4117 878.065 92.9624 878.704 94.2408C879.355 95.5192 880.26 96.4957 881.421 97.1705C882.581 97.8333 883.936 98.1648 885.487 98.1648C886.493 98.1648 887.41 98.0227 888.239 97.7386C889.067 97.4427 889.783 97.0047 890.387 96.4247C890.991 95.8447 891.452 95.1286 891.772 94.2763L896.797 95.1818C896.394 96.6615 895.672 97.9576 894.631 99.0703C893.601 100.171 892.305 101.029 890.742 101.645C889.192 102.249 887.422 102.55 885.433 102.55ZM287.778 158.533C285.577 158.533 283.612 157.97 281.884 156.846C280.167 155.71 278.818 154.094 277.835 151.999C276.865 149.892 276.379 147.364 276.379 144.417C276.379 141.469 276.871 138.948 277.853 136.853C278.847 134.758 280.209 133.154 281.937 132.041C283.665 130.929 285.624 130.372 287.814 130.372C289.507 130.372 290.868 130.656 291.898 131.224C292.939 131.781 293.744 132.432 294.312 133.178C294.893 133.923 295.342 134.58 295.662 135.148H295.982V121.636H301.29V158H296.106V153.756H295.662C295.342 154.336 294.881 154.999 294.277 155.745C293.685 156.491 292.868 157.142 291.827 157.698C290.785 158.254 289.436 158.533 287.778 158.533ZM288.95 154.005C290.477 154.005 291.768 153.603 292.821 152.798C293.886 151.981 294.691 150.85 295.236 149.406C295.792 147.962 296.07 146.281 296.07 144.364C296.07 142.47 295.798 140.812 295.254 139.392C294.709 137.972 293.91 136.865 292.857 136.072C291.803 135.279 290.501 134.882 288.95 134.882C287.352 134.882 286.021 135.296 284.955 136.125C283.89 136.954 283.085 138.084 282.54 139.516C282.008 140.949 281.741 142.564 281.741 144.364C281.741 146.187 282.014 147.826 282.558 149.282C283.103 150.738 283.908 151.892 284.973 152.744C286.05 153.585 287.376 154.005 288.95 154.005ZM318.872 158.55C316.185 158.55 313.871 157.976 311.93 156.828C310 155.668 308.509 154.04 307.455 151.945C306.413 149.838 305.893 147.37 305.893 144.541C305.893 141.748 306.413 139.286 307.455 137.155C308.509 135.024 309.976 133.361 311.858 132.165C313.752 130.97 315.966 130.372 318.499 130.372C320.038 130.372 321.529 130.627 322.974 131.136C324.418 131.645 325.714 132.444 326.862 133.533C328.01 134.622 328.916 136.036 329.579 137.776C330.242 139.504 330.573 141.606 330.573 144.08V145.962H308.893V141.984H325.371C325.371 140.588 325.086 139.351 324.518 138.273C323.95 137.184 323.151 136.326 322.121 135.699C321.103 135.071 319.908 134.758 318.535 134.758C317.043 134.758 315.741 135.125 314.628 135.859C313.528 136.581 312.675 137.528 312.072 138.7C311.48 139.86 311.184 141.12 311.184 142.482V145.589C311.184 147.412 311.503 148.962 312.143 150.241C312.794 151.519 313.699 152.496 314.859 153.17C316.019 153.833 317.375 154.165 318.925 154.165C319.931 154.165 320.849 154.023 321.677 153.739C322.506 153.443 323.222 153.005 323.826 152.425C324.43 151.845 324.891 151.129 325.211 150.276L330.236 151.182C329.833 152.661 329.111 153.958 328.069 155.07C327.04 156.171 325.743 157.029 324.181 157.645C322.63 158.249 320.861 158.55 318.872 158.55ZM351.505 121.636V158H346.196V121.636H351.505ZM361.46 121.636V125.045C361.46 126.052 361.271 127.111 360.892 128.224C360.525 129.325 360.004 130.384 359.33 131.402C358.655 132.42 357.862 133.296 356.95 134.03L354.322 132.148C355.021 131.13 355.625 130.047 356.134 128.898C356.654 127.75 356.915 126.484 356.915 125.099V121.636H361.46ZM391.418 121.636H396.923V145.553C396.923 148.098 396.325 150.353 395.129 152.318C393.934 154.271 392.253 155.81 390.087 156.935C387.92 158.047 385.381 158.604 382.469 158.604C379.569 158.604 377.036 158.047 374.87 156.935C372.704 155.81 371.023 154.271 369.827 152.318C368.632 150.353 368.034 148.098 368.034 145.553V121.636H373.521V145.109C373.521 146.755 373.882 148.217 374.604 149.495C375.338 150.773 376.373 151.78 377.711 152.513C379.049 153.236 380.635 153.597 382.469 153.597C384.316 153.597 385.908 153.236 387.246 152.513C388.595 151.78 389.625 150.773 390.335 149.495C391.057 148.217 391.418 146.755 391.418 145.109V121.636ZM410.532 141.807V158H405.223V130.727H410.319V135.166H410.656C411.284 133.722 412.266 132.562 413.604 131.686C414.953 130.81 416.652 130.372 418.7 130.372C420.558 130.372 422.186 130.763 423.583 131.544C424.979 132.313 426.062 133.462 426.832 134.989C427.601 136.516 427.986 138.404 427.986 140.653V158H422.677V141.292C422.677 139.315 422.162 137.77 421.132 136.658C420.102 135.533 418.688 134.971 416.889 134.971C415.658 134.971 414.563 135.237 413.604 135.77C412.657 136.303 411.905 137.084 411.349 138.114C410.804 139.132 410.532 140.363 410.532 141.807ZM435.856 158V130.727H441.165V158H435.856ZM438.537 126.519C437.614 126.519 436.821 126.211 436.158 125.596C435.507 124.969 435.181 124.223 435.181 123.359C435.181 122.483 435.507 121.737 436.158 121.121C436.821 120.494 437.614 120.18 438.537 120.18C439.46 120.18 440.248 120.494 440.899 121.121C441.561 121.737 441.893 122.483 441.893 123.359C441.893 124.223 441.561 124.969 440.899 125.596C440.248 126.211 439.46 126.519 438.537 126.519ZM460.545 158.55C457.988 158.55 455.757 157.964 453.851 156.793C451.945 155.621 450.466 153.981 449.412 151.874C448.359 149.767 447.832 147.305 447.832 144.488C447.832 141.659 448.359 139.185 449.412 137.066C450.466 134.947 451.945 133.302 453.851 132.13C455.757 130.958 457.988 130.372 460.545 130.372C463.102 130.372 465.333 130.958 467.239 132.13C469.145 133.302 470.624 134.947 471.678 137.066C472.731 139.185 473.258 141.659 473.258 144.488C473.258 147.305 472.731 149.767 471.678 151.874C470.624 153.981 469.145 155.621 467.239 156.793C465.333 157.964 463.102 158.55 460.545 158.55ZM460.563 154.094C462.22 154.094 463.593 153.656 464.682 152.78C465.771 151.904 466.576 150.738 467.097 149.282C467.63 147.826 467.896 146.222 467.896 144.47C467.896 142.73 467.63 141.132 467.097 139.676C466.576 138.208 465.771 137.031 464.682 136.143C463.593 135.255 462.22 134.811 460.563 134.811C458.894 134.811 457.509 135.255 456.408 136.143C455.319 137.031 454.508 138.208 453.975 139.676C453.455 141.132 453.194 142.73 453.194 144.47C453.194 146.222 453.455 147.826 453.975 149.282C454.508 150.738 455.319 151.904 456.408 152.78C457.509 153.656 458.894 154.094 460.563 154.094ZM482.743 141.807V158H477.434V130.727H482.53V135.166H482.867C483.495 133.722 484.477 132.562 485.815 131.686C487.164 130.81 488.863 130.372 490.911 130.372C492.769 130.372 494.397 130.763 495.794 131.544C497.19 132.313 498.273 133.462 499.043 134.989C499.812 136.516 500.197 138.404 500.197 140.653V158H494.888V141.292C494.888 139.315 494.373 137.77 493.343 136.658C492.313 135.533 490.899 134.971 489.1 134.971C487.869 134.971 486.774 135.237 485.815 135.77C484.868 136.303 484.116 137.084 483.56 138.114C483.015 139.132 482.743 140.363 482.743 141.807ZM528.804 158.55C526.117 158.55 523.802 157.976 521.861 156.828C519.932 155.668 518.44 154.04 517.387 151.945C516.345 149.838 515.824 147.37 515.824 144.541C515.824 141.748 516.345 139.286 517.387 137.155C518.44 135.024 519.908 133.361 521.79 132.165C523.684 130.97 525.898 130.372 528.431 130.372C529.97 130.372 531.461 130.627 532.905 131.136C534.349 131.645 535.645 132.444 536.794 133.533C537.942 134.622 538.847 136.036 539.51 137.776C540.173 139.504 540.505 141.606 540.505 144.08V145.962H518.825V141.984H535.302C535.302 140.588 535.018 139.351 534.45 138.273C533.882 137.184 533.083 136.326 532.053 135.699C531.035 135.071 529.839 134.758 528.466 134.758C526.975 134.758 525.673 135.125 524.56 135.859C523.459 136.581 522.607 137.528 522.003 138.7C521.411 139.86 521.115 141.12 521.115 142.482V145.589C521.115 147.412 521.435 148.962 522.074 150.241C522.725 151.519 523.631 152.496 524.791 153.17C525.951 153.833 527.306 154.165 528.857 154.165C529.863 154.165 530.78 154.023 531.609 153.739C532.438 153.443 533.154 153.005 533.757 152.425C534.361 151.845 534.823 151.129 535.142 150.276L540.167 151.182C539.765 152.661 539.043 153.958 538.001 155.07C536.971 156.171 535.675 157.029 534.113 157.645C532.562 158.249 530.792 158.55 528.804 158.55ZM561.921 146.69V130.727H567.248V158H562.028V153.277H561.744C561.116 154.733 560.11 155.946 558.725 156.917C557.352 157.876 555.642 158.355 553.594 158.355C551.842 158.355 550.291 157.97 548.942 157.201C547.604 156.42 546.551 155.266 545.781 153.739C545.024 152.212 544.645 150.324 544.645 148.075V130.727H549.954V147.435C549.954 149.294 550.469 150.773 551.499 151.874C552.529 152.975 553.866 153.526 555.512 153.526C556.506 153.526 557.494 153.277 558.477 152.78C559.471 152.283 560.294 151.531 560.945 150.525C561.608 149.519 561.933 148.24 561.921 146.69ZM572.631 158V130.727H577.763V135.06H578.047C578.544 133.592 579.42 132.438 580.675 131.597C581.941 130.745 583.374 130.319 584.972 130.319C585.303 130.319 585.694 130.331 586.143 130.354C586.605 130.378 586.966 130.408 587.227 130.443V135.521C587.013 135.462 586.635 135.397 586.09 135.326C585.546 135.243 585.001 135.202 584.457 135.202C583.202 135.202 582.083 135.468 581.101 136.001C580.13 136.522 579.361 137.25 578.793 138.185C578.224 139.108 577.94 140.161 577.94 141.345V158H572.631ZM600.582 158.55C598.025 158.55 595.794 157.964 593.888 156.793C591.983 155.621 590.503 153.981 589.449 151.874C588.396 149.767 587.869 147.305 587.869 144.488C587.869 141.659 588.396 139.185 589.449 137.066C590.503 134.947 591.983 133.302 593.888 132.13C595.794 130.958 598.025 130.372 600.582 130.372C603.139 130.372 605.37 130.958 607.276 132.13C609.182 133.302 610.662 134.947 611.715 137.066C612.769 139.185 613.295 141.659 613.295 144.488C613.295 147.305 612.769 149.767 611.715 151.874C610.662 153.981 609.182 155.621 607.276 156.793C605.37 157.964 603.139 158.55 600.582 158.55ZM600.6 154.094C602.257 154.094 603.63 153.656 604.719 152.78C605.808 151.904 606.613 150.738 607.134 149.282C607.667 147.826 607.933 146.222 607.933 144.47C607.933 142.73 607.667 141.132 607.134 139.676C606.613 138.208 605.808 137.031 604.719 136.143C603.63 135.255 602.257 134.811 600.6 134.811C598.931 134.811 597.546 135.255 596.445 136.143C595.356 137.031 594.545 138.208 594.013 139.676C593.492 141.132 593.231 142.73 593.231 144.47C593.231 146.222 593.492 147.826 594.013 149.282C594.545 150.738 595.356 151.904 596.445 152.78C597.546 153.656 598.931 154.094 600.6 154.094ZM617.471 168.227V130.727H622.656V135.148H623.1C623.408 134.58 623.851 133.923 624.431 133.178C625.011 132.432 625.816 131.781 626.846 131.224C627.876 130.656 629.237 130.372 630.93 130.372C633.132 130.372 635.097 130.929 636.825 132.041C638.553 133.154 639.908 134.758 640.891 136.853C641.885 138.948 642.382 141.469 642.382 144.417C642.382 147.364 641.891 149.892 640.909 151.999C639.926 154.094 638.577 155.71 636.86 156.846C635.144 157.97 633.185 158.533 630.983 158.533C629.326 158.533 627.971 158.254 626.917 157.698C625.876 157.142 625.059 156.491 624.467 155.745C623.875 154.999 623.419 154.336 623.1 153.756H622.78V168.227H617.471ZM622.674 144.364C622.674 146.281 622.952 147.962 623.508 149.406C624.065 150.85 624.869 151.981 625.923 152.798C626.976 153.603 628.267 154.005 629.794 154.005C631.38 154.005 632.706 153.585 633.771 152.744C634.836 151.892 635.641 150.738 636.186 149.282C636.742 147.826 637.02 146.187 637.02 144.364C637.02 142.564 636.748 140.949 636.203 139.516C635.671 138.084 634.866 136.954 633.789 136.125C632.723 135.296 631.392 134.882 629.794 134.882C628.255 134.882 626.953 135.279 625.887 136.072C624.834 136.865 624.035 137.972 623.49 139.392C622.946 140.812 622.674 142.47 622.674 144.364ZM658.335 158.55C655.648 158.55 653.334 157.976 651.392 156.828C649.463 155.668 647.971 154.04 646.918 151.945C645.876 149.838 645.355 147.37 645.355 144.541C645.355 141.748 645.876 139.286 646.918 137.155C647.971 135.024 649.439 133.361 651.321 132.165C653.215 130.97 655.429 130.372 657.962 130.372C659.501 130.372 660.992 130.627 662.436 131.136C663.881 131.645 665.177 132.444 666.325 133.533C667.473 134.622 668.379 136.036 669.042 137.776C669.704 139.504 670.036 141.606 670.036 144.08V145.962H648.356V141.984H664.833C664.833 140.588 664.549 139.351 663.981 138.273C663.413 137.184 662.614 136.326 661.584 135.699C660.566 135.071 659.371 134.758 657.998 134.758C656.506 134.758 655.204 135.125 654.091 135.859C652.99 136.581 652.138 137.528 651.534 138.7C650.943 139.86 650.647 141.12 650.647 142.482V145.589C650.647 147.412 650.966 148.962 651.605 150.241C652.257 151.519 653.162 152.496 654.322 153.17C655.482 153.833 656.837 154.165 658.388 154.165C659.394 154.165 660.312 154.023 661.14 153.739C661.969 153.443 662.685 153.005 663.289 152.425C663.892 151.845 664.354 151.129 664.674 150.276L669.699 151.182C669.296 152.661 668.574 153.958 667.532 155.07C666.502 156.171 665.206 157.029 663.644 157.645C662.093 158.249 660.324 158.55 658.335 158.55ZM655.565 127.087L659.72 118.902H665.313L659.809 127.087H655.565ZM685.931 158.55C683.244 158.55 680.929 157.976 678.988 156.828C677.059 155.668 675.567 154.04 674.514 151.945C673.472 149.838 672.951 147.37 672.951 144.541C672.951 141.748 673.472 139.286 674.514 137.155C675.567 135.024 677.035 133.361 678.917 132.165C680.811 130.97 683.025 130.372 685.558 130.372C687.097 130.372 688.588 130.627 690.032 131.136C691.476 131.645 692.772 132.444 693.921 133.533C695.069 134.622 695.974 136.036 696.637 137.776C697.3 139.504 697.632 141.606 697.632 144.08V145.962H675.952V141.984H692.429C692.429 140.588 692.145 139.351 691.577 138.273C691.009 137.184 690.21 136.326 689.18 135.699C688.162 135.071 686.966 134.758 685.593 134.758C684.102 134.758 682.8 135.125 681.687 135.859C680.586 136.581 679.734 137.528 679.13 138.7C678.538 139.86 678.242 141.12 678.242 142.482V145.589C678.242 147.412 678.562 148.962 679.201 150.241C679.852 151.519 680.758 152.496 681.918 153.17C683.078 153.833 684.433 154.165 685.984 154.165C686.99 154.165 687.907 154.023 688.736 153.739C689.565 153.443 690.281 153.005 690.884 152.425C691.488 151.845 691.95 151.129 692.269 150.276L697.294 151.182C696.892 152.661 696.17 153.958 695.128 155.07C694.098 156.171 692.802 157.029 691.24 157.645C689.689 158.249 687.919 158.55 685.931 158.55ZM707.081 141.807V158H701.772V130.727H706.868V135.166H707.205C707.833 133.722 708.815 132.562 710.153 131.686C711.502 130.81 713.201 130.372 715.249 130.372C717.107 130.372 718.735 130.763 720.131 131.544C721.528 132.313 722.611 133.462 723.381 134.989C724.15 136.516 724.535 138.404 724.535 140.653V158H719.226V141.292C719.226 139.315 718.711 137.77 717.681 136.658C716.651 135.533 715.237 134.971 713.438 134.971C712.206 134.971 711.112 135.237 710.153 135.77C709.206 136.303 708.454 137.084 707.898 138.114C707.353 139.132 707.081 140.363 707.081 141.807ZM735.214 141.807V158H729.905V130.727H735.001V135.166H735.338C735.965 133.722 736.948 132.562 738.286 131.686C739.635 130.81 741.334 130.372 743.381 130.372C745.24 130.372 746.867 130.763 748.264 131.544C749.661 132.313 750.744 133.462 751.513 134.989C752.283 136.516 752.668 138.404 752.668 140.653V158H747.359V141.292C747.359 139.315 746.844 137.77 745.814 136.658C744.784 135.533 743.37 134.971 741.57 134.971C740.339 134.971 739.244 135.237 738.286 135.77C737.339 136.303 736.587 137.084 736.031 138.114C735.486 139.132 735.214 140.363 735.214 141.807ZM769.792 158.55C767.105 158.55 764.791 157.976 762.849 156.828C760.92 155.668 759.429 154.04 758.375 151.945C757.333 149.838 756.812 147.37 756.812 144.541C756.812 141.748 757.333 139.286 758.375 137.155C759.429 135.024 760.896 133.361 762.778 132.165C764.672 130.97 766.886 130.372 769.419 130.372C770.958 130.372 772.449 130.627 773.893 131.136C775.338 131.645 776.634 132.444 777.782 133.533C778.93 134.622 779.836 136.036 780.499 137.776C781.161 139.504 781.493 141.606 781.493 144.08V145.962H759.813V141.984H776.29C776.29 140.588 776.006 139.351 775.438 138.273C774.87 137.184 774.071 136.326 773.041 135.699C772.023 135.071 770.828 134.758 769.455 134.758C767.963 134.758 766.661 135.125 765.548 135.859C764.447 136.581 763.595 137.528 762.991 138.7C762.4 139.86 762.104 141.12 762.104 142.482V145.589C762.104 147.412 762.423 148.962 763.062 150.241C763.714 151.519 764.619 152.496 765.779 153.17C766.939 153.833 768.295 154.165 769.845 154.165C770.851 154.165 771.769 154.023 772.597 153.739C773.426 153.443 774.142 153.005 774.746 152.425C775.349 151.845 775.811 151.129 776.131 150.276L781.156 151.182C780.753 152.661 780.031 153.958 778.989 155.07C777.96 156.171 776.663 157.029 775.101 157.645C773.55 158.249 771.781 158.55 769.792 158.55Z" fill="#1F4FA1"/>
<g clip-path="url(#clip0_1115_3664)">
<path d="M250 0H0V167H250V0Z" fill="#1F4FA1"/>
<path d="M125 18.5557L122.139 27.3794L126.542 28.8129L125 18.5557Z" fill="#F7ED34"/>
<path d="M125 18.5557L127.861 27.3794L123.458 28.8129L125 18.5557Z" fill="#F7ED34"/>
<path d="M133.806 24.9663L124.549 24.9708L124.547 29.6052L133.806 24.9663Z" fill="#F7ED34"/>
<path d="M133.806 24.9641L126.313 30.4197L123.594 26.669L133.806 24.9641Z" fill="#F7ED34"/>
<path d="M130.442 35.3381L127.583 26.5157L123.178 27.9504L130.442 35.3381Z" fill="#F7ED34"/>
<path d="M130.441 35.3394L122.951 29.8874L125.674 26.1331L130.441 35.3394Z" fill="#F7ED34"/>
<path d="M116.194 24.9663L125.451 24.9708L125.453 29.6052L116.194 24.9663Z" fill="#F7ED34"/>
<path d="M116.194 24.9641L123.687 30.4197L126.406 26.669L116.194 24.9641Z" fill="#F7ED34"/>
<path d="M119.558 35.3381L122.417 26.5157L126.822 27.9504L119.558 35.3381Z" fill="#F7ED34"/>
<path d="M119.559 35.3394L127.049 29.8874L124.326 26.1331L119.559 35.3394Z" fill="#F7ED34"/>
<path d="M125 129.889L122.139 138.713L126.542 140.146L125 129.889Z" fill="#F7ED34"/>
<path d="M125 129.889L127.861 138.713L123.458 140.146L125 129.889Z" fill="#F7ED34"/>
<path d="M133.806 136.3L124.549 136.304L124.547 140.938L133.806 136.3Z" fill="#F7ED34"/>
<path d="M133.806 136.297L126.313 141.753L123.594 138.002L133.806 136.297Z" fill="#F7ED34"/>
<path d="M130.442 146.671L127.583 137.849L123.178 139.284L130.442 146.671Z" fill="#F7ED34"/>
<path d="M130.441 146.673L122.951 141.221L125.674 137.466L130.441 146.673Z" fill="#F7ED34"/>
<path d="M116.194 136.3L125.451 136.304L125.453 140.938L116.194 136.3Z" fill="#F7ED34"/>
<path d="M116.194 136.297L123.687 141.753L126.406 138.002L116.194 136.297Z" fill="#F7ED34"/>
<path d="M119.558 146.671L122.417 137.849L126.822 139.284L119.558 146.671Z" fill="#F7ED34"/>
<path d="M119.559 146.673L127.049 141.221L124.326 137.466L119.559 146.673Z" fill="#F7ED34"/>
<path d="M69.4446 74.2224L66.5833 83.0461L70.9864 84.4796L69.4446 74.2224Z" fill="#F7ED34"/>
<path d="M69.4446 74.2224L72.3058 83.0461L67.9028 84.4796L69.4446 74.2224Z" fill="#F7ED34"/>
<path d="M78.2505 80.6331L68.9934 80.6375L68.9912 85.2719L78.2505 80.6331Z" fill="#F7ED34"/>
<path d="M78.2505 80.6309L70.7576 86.0864L68.0384 82.3357L78.2505 80.6309Z" fill="#F7ED34"/>
<path d="M74.887 91.0049L72.0274 82.1824L67.6227 83.6171L74.887 91.0049Z" fill="#F7ED34"/>
<path d="M74.8857 91.0061L67.3961 85.5541L70.1185 81.7998L74.8857 91.0061Z" fill="#F7ED34"/>
<path d="M60.6384 80.6331L69.8955 80.6375L69.8977 85.2719L60.6384 80.6331Z" fill="#F7ED34"/>
<path d="M60.6384 80.6309L68.1313 86.0864L70.8506 82.3357L60.6384 80.6309Z" fill="#F7ED34"/>
<path d="M64.002 91.0049L66.8615 82.1824L71.2663 83.6171L64.002 91.0049Z" fill="#F7ED34"/>
<path d="M64.0032 91.0061L71.4928 85.5541L68.7704 81.7998L64.0032 91.0061Z" fill="#F7ED34"/>
<path d="M91.781 42.7974L99.2706 37.3455L96.5481 33.5911L91.781 42.7974Z" fill="#F7ED34"/>
<path d="M91.7798 42.7961L94.6392 33.9737L99.0441 35.4085L91.7798 42.7961Z" fill="#F7ED34"/>
<path d="M88.416 32.4231L95.908 37.8776L98.6281 34.1259L88.416 32.4231Z" fill="#F7ED34"/>
<path d="M88.416 32.4243L97.6741 32.4267L97.6753 37.0632L88.416 32.4243Z" fill="#F7ED34"/>
<path d="M97.2205 26.0137L94.361 34.8361L98.7659 36.2709L97.2205 26.0137Z" fill="#F7ED34"/>
<path d="M97.2205 26.0137L100.084 34.8387L95.6823 36.2709L97.2205 26.0137Z" fill="#F7ED34"/>
<path d="M102.666 42.7974L95.1737 37.3427L97.8938 33.5911L102.666 42.7974Z" fill="#F7ED34"/>
<path d="M102.665 42.7983L99.8016 33.9735L95.4002 35.4058L102.665 42.7983Z" fill="#F7ED34"/>
<path d="M106.028 32.4253L98.538 37.8777L95.8159 34.1237L106.028 32.4253Z" fill="#F7ED34"/>
<path d="M106.027 32.4263L96.7688 32.4243L96.7698 37.0613L106.027 32.4263Z" fill="#F7ED34"/>
<path d="M82.3298 63.1716L79.4704 54.3492L75.0655 55.784L82.3298 63.1716Z" fill="#F7ED34"/>
<path d="M82.3286 63.1729L74.839 57.721L77.5615 53.9666L82.3286 63.1729Z" fill="#F7ED34"/>
<path d="M71.4438 63.1729L78.9359 57.7182L76.2159 53.9666L71.4438 63.1729Z" fill="#F7ED34"/>
<path d="M71.4451 63.1738L74.308 54.349L78.7094 55.7813L71.4451 63.1738Z" fill="#F7ED34"/>
<path d="M68.0815 52.8008L75.5716 58.2531L78.2937 54.4992L68.0815 52.8008Z" fill="#F7ED34"/>
<path d="M68.0825 52.8018L77.3408 52.7998L77.3399 57.4368L68.0825 52.8018Z" fill="#F7ED34"/>
<path d="M85.6936 52.7986L78.2016 58.2531L75.4815 54.5014L85.6936 52.7986Z" fill="#F7ED34"/>
<path d="M85.6936 52.7998L76.4355 52.8022L76.4343 57.4387L85.6936 52.7998Z" fill="#F7ED34"/>
<path d="M76.8892 46.3892L79.7486 55.2116L75.3438 56.6463L76.8892 46.3892Z" fill="#F7ED34"/>
<path d="M76.8892 46.3892L74.0261 55.2141L78.4273 56.6463L76.8892 46.3892Z" fill="#F7ED34"/>
<path d="M85.6936 108.467L76.4374 108.473L76.4343 113.105L85.6936 108.467Z" fill="#F7ED34"/>
<path d="M85.6936 108.463L78.1999 113.92L75.4815 110.17L85.6936 108.463Z" fill="#F7ED34"/>
<path d="M82.3301 118.836L79.4734 110.016L75.0658 111.452L82.3301 118.836Z" fill="#F7ED34"/>
<path d="M82.3267 118.839L74.839 113.39L77.5635 109.633L82.3267 118.839Z" fill="#F7ED34"/>
<path d="M71.4431 118.839L78.936 113.384L76.2168 109.633L71.4431 118.839Z" fill="#F7ED34"/>
<path d="M71.4451 118.841L74.3092 110.016L78.7094 111.447L71.4451 118.841Z" fill="#F7ED34"/>
<path d="M76.8914 102.056L79.7487 110.877L75.3418 112.313L76.8914 102.056Z" fill="#F7ED34"/>
<path d="M76.8914 102.056L74.0262 110.882L78.4254 112.313L76.8914 102.056Z" fill="#F7ED34"/>
<path d="M68.0825 108.469L77.3406 108.466L77.3395 113.103L68.0825 108.469Z" fill="#F7ED34"/>
<path d="M68.0815 108.468L75.5714 113.92L78.2937 110.165L68.0815 108.468Z" fill="#F7ED34"/>
<path d="M106.028 128.842L96.7721 128.848L96.7691 133.481L106.028 128.842Z" fill="#F7ED34"/>
<path d="M106.028 128.839L98.5346 134.295L95.8162 130.546L106.028 128.839Z" fill="#F7ED34"/>
<path d="M102.665 139.211L99.8082 130.391L95.4005 131.828L102.665 139.211Z" fill="#F7ED34"/>
<path d="M102.661 139.215L95.1738 133.765L97.8983 130.009L102.661 139.215Z" fill="#F7ED34"/>
<path d="M91.7778 139.215L99.2707 133.759L96.5515 130.009L91.7778 139.215Z" fill="#F7ED34"/>
<path d="M91.7798 139.217L94.6439 130.391L99.0441 131.822L91.7798 139.217Z" fill="#F7ED34"/>
<path d="M97.2261 122.431L100.083 131.252L95.6765 132.689L97.2261 122.431Z" fill="#F7ED34"/>
<path d="M97.2261 122.431L94.3609 131.258L98.7601 132.689L97.2261 122.431Z" fill="#F7ED34"/>
<path d="M88.4172 128.845L97.6753 128.842L97.6742 133.479L88.4172 128.845Z" fill="#F7ED34"/>
<path d="M88.4163 128.843L95.9061 134.295L98.6284 130.541L88.4163 128.843Z" fill="#F7ED34"/>
<path d="M180.555 74.2224L183.417 83.0461L179.014 84.4796L180.555 74.2224Z" fill="#F7ED34"/>
<path d="M180.555 74.2224L177.694 83.0461L182.097 84.4796L180.555 74.2224Z" fill="#F7ED34"/>
<path d="M171.75 80.6331L181.007 80.6375L181.009 85.2719L171.75 80.6331Z" fill="#F7ED34"/>
<path d="M171.75 80.6309L179.242 86.0864L181.962 82.3357L171.75 80.6309Z" fill="#F7ED34"/>
<path d="M175.113 91.0049L177.973 82.1824L182.377 83.6171L175.113 91.0049Z" fill="#F7ED34"/>
<path d="M175.114 91.0061L182.604 85.5541L179.881 81.7998L175.114 91.0061Z" fill="#F7ED34"/>
<path d="M189.362 80.6331L180.104 80.6375L180.102 85.2719L189.362 80.6331Z" fill="#F7ED34"/>
<path d="M189.362 80.6309L181.869 86.0864L179.149 82.3357L189.362 80.6309Z" fill="#F7ED34"/>
<path d="M185.998 91.0049L183.139 82.1824L178.734 83.6171L185.998 91.0049Z" fill="#F7ED34"/>
<path d="M185.997 91.0061L178.507 85.5541L181.23 81.7998L185.997 91.0061Z" fill="#F7ED34"/>
<path d="M158.219 42.7974L150.729 37.3455L153.452 33.5911L158.219 42.7974Z" fill="#F7ED34"/>
<path d="M158.22 42.7961L155.361 33.9737L150.956 35.4085L158.22 42.7961Z" fill="#F7ED34"/>
<path d="M161.584 32.4231L154.092 37.8776L151.372 34.1259L161.584 32.4231Z" fill="#F7ED34"/>
<path d="M161.584 32.4243L152.326 32.4267L152.325 37.0632L161.584 32.4243Z" fill="#F7ED34"/>
<path d="M152.78 26.0137L155.639 34.8361L151.234 36.2709L152.78 26.0137Z" fill="#F7ED34"/>
<path d="M152.78 26.0137L149.916 34.8387L154.318 36.2709L152.78 26.0137Z" fill="#F7ED34"/>
<path d="M147.334 42.7974L154.826 37.3427L152.106 33.5911L147.334 42.7974Z" fill="#F7ED34"/>
<path d="M147.335 42.7983L150.198 33.9735L154.6 35.4058L147.335 42.7983Z" fill="#F7ED34"/>
<path d="M143.972 32.4253L151.462 37.8777L154.184 34.1237L143.972 32.4253Z" fill="#F7ED34"/>
<path d="M143.973 32.4263L153.231 32.4243L153.23 37.0613L143.973 32.4263Z" fill="#F7ED34"/>
<path d="M167.67 63.1716L170.53 54.3492L174.934 55.784L167.67 63.1716Z" fill="#F7ED34"/>
<path d="M167.671 63.1729L175.161 57.721L172.438 53.9666L167.671 63.1729Z" fill="#F7ED34"/>
<path d="M178.556 63.1729L171.064 57.7182L173.784 53.9666L178.556 63.1729Z" fill="#F7ED34"/>
<path d="M178.555 63.1738L175.692 54.349L171.291 55.7813L178.555 63.1738Z" fill="#F7ED34"/>
<path d="M181.918 52.8008L174.428 58.2531L171.706 54.4992L181.918 52.8008Z" fill="#F7ED34"/>
<path d="M181.917 52.8018L172.659 52.7998L172.66 57.4368L181.917 52.8018Z" fill="#F7ED34"/>
<path d="M164.306 52.7986L171.798 58.2531L174.519 54.5014L164.306 52.7986Z" fill="#F7ED34"/>
<path d="M164.306 52.7998L173.564 52.8022L173.566 57.4387L164.306 52.7998Z" fill="#F7ED34"/>
<path d="M173.111 46.3892L170.251 55.2116L174.656 56.6463L173.111 46.3892Z" fill="#F7ED34"/>
<path d="M173.111 46.3892L175.974 55.2141L171.573 56.6463L173.111 46.3892Z" fill="#F7ED34"/>
<path d="M164.306 108.467L173.563 108.473L173.566 113.105L164.306 108.467Z" fill="#F7ED34"/>
<path d="M164.306 108.463L171.8 113.92L174.519 110.17L164.306 108.463Z" fill="#F7ED34"/>
<path d="M167.67 118.836L170.527 110.016L174.934 111.452L167.67 118.836Z" fill="#F7ED34"/>
<path d="M167.673 118.839L175.161 113.39L172.436 109.633L167.673 118.839Z" fill="#F7ED34"/>
<path d="M178.557 118.839L171.064 113.384L173.783 109.633L178.557 118.839Z" fill="#F7ED34"/>
<path d="M178.555 118.841L175.691 110.016L171.291 111.447L178.555 118.841Z" fill="#F7ED34"/>
<path d="M173.109 102.056L170.251 110.877L174.658 112.313L173.109 102.056Z" fill="#F7ED34"/>
<path d="M173.109 102.056L175.974 110.882L171.575 112.313L173.109 102.056Z" fill="#F7ED34"/>
<path d="M181.917 108.469L172.659 108.467L172.661 113.103L181.917 108.469Z" fill="#F7ED34"/>
<path d="M181.918 108.468L174.429 113.92L171.706 110.166L181.918 108.468Z" fill="#F7ED34"/>
<path d="M143.972 128.842L153.228 128.848L153.231 133.481L143.972 128.842Z" fill="#F7ED34"/>
<path d="M143.972 128.839L151.465 134.295L154.184 130.546L143.972 128.839Z" fill="#F7ED34"/>
<path d="M147.335 139.211L150.192 130.391L154.6 131.828L147.335 139.211Z" fill="#F7ED34"/>
<path d="M147.339 139.215L154.826 133.765L152.102 130.009L147.339 139.215Z" fill="#F7ED34"/>
<path d="M158.222 139.215L150.729 133.759L153.448 130.009L158.222 139.215Z" fill="#F7ED34"/>
<path d="M158.22 139.217L155.356 130.391L150.956 131.822L158.22 139.217Z" fill="#F7ED34"/>
<path d="M152.774 122.431L149.917 131.252L154.324 132.689L152.774 122.431Z" fill="#F7ED34"/>
<path d="M152.774 122.431L155.639 131.258L151.24 132.689L152.774 122.431Z" fill="#F7ED34"/>
<path d="M161.583 128.845L152.325 128.842L152.326 133.479L161.583 128.845Z" fill="#F7ED34"/>
<path d="M161.584 128.843L154.094 134.295L151.372 130.541L161.584 128.843Z" fill="#F7ED34"/>
</g>
<defs>
<clipPath id="clip0_1115_3664">
<rect width="250" height="167" fill="white"/>
</clipPath>
</defs>
</svg>
