<svg width="249" height="46" viewBox="0 0 249 46" fill="none" xmlns="http://www.w3.org/2000/svg">
<path d="M0 17.16L6.444 0.359985H9.924L16.5 17.16H12.984L11.556 13.356H4.8L3.42 17.16H0ZM5.568 10.704H10.764L8.124 3.88799L5.568 10.704Z" fill="#0D0D0D"/>
<path d="M25.1601 17.52C23.6401 17.52 22.3641 17.212 21.3321 16.596C20.3081 15.98 19.5361 15.144 19.0161 14.088C18.4961 13.024 18.2361 11.824 18.2361 10.488V0.359985H21.3561V10.524C21.3561 11.884 21.6961 12.9 22.3761 13.572C23.0561 14.244 23.9841 14.58 25.1601 14.58C26.3361 14.58 27.2601 14.244 27.9321 13.572C28.6121 12.9 28.9521 11.884 28.9521 10.524V0.359985H32.0841V10.488C32.0841 11.824 31.8241 13.024 31.3041 14.088C30.7841 15.144 30.0121 15.98 28.9881 16.596C27.9641 17.212 26.6881 17.52 25.1601 17.52Z" fill="#0D0D0D"/>
<path d="M35.9868 17.16V0.359985H41.4109C43.0989 0.359985 44.5909 0.715985 45.8869 1.42799C47.1829 2.13999 48.1949 3.12799 48.9229 4.39199C49.6509 5.65599 50.0149 7.11599 50.0149 8.77199C50.0149 10.004 49.8069 11.136 49.3909 12.168C48.9749 13.192 48.3829 14.076 47.6149 14.82C46.8549 15.564 45.9469 16.14 44.8909 16.548C43.8429 16.956 42.6829 17.16 41.4109 17.16H35.9868ZM39.1069 14.256H41.1229C41.9629 14.256 42.7269 14.132 43.4149 13.884C44.1029 13.636 44.6949 13.276 45.1909 12.804C45.6949 12.332 46.0789 11.756 46.3429 11.076C46.6149 10.396 46.7509 9.62799 46.7509 8.77199C46.7509 7.61199 46.5149 6.62399 46.0429 5.80799C45.5789 4.98399 44.9229 4.35599 44.0749 3.92399C43.2349 3.48399 42.2509 3.26399 41.1229 3.26399H39.1069V14.256Z" fill="#0D0D0D"/>
<path d="M52.9729 17.16V0.359985H56.0929V17.16H52.9729Z" fill="#0D0D0D"/>
<path d="M60.093 17.16V0.359985H71.265V3.09599H63.213V7.16399H70.101V9.71999H63.213V14.4H71.349V17.16H60.093Z" fill="#0D0D0D"/>
<path d="M74.7361 17.16V0.359985H77.7601L85.7161 11.928V0.359985H88.7521V17.16H85.7281L77.7721 5.44799V17.16H74.7361Z" fill="#0D0D0D"/>
<path d="M100.445 17.52C98.701 17.52 97.173 17.16 95.861 16.44C94.549 15.72 93.529 14.708 92.801 13.404C92.073 12.092 91.709 10.552 91.709 8.784C91.709 7.496 91.921 6.32 92.345 5.256C92.777 4.184 93.385 3.256 94.169 2.472C94.961 1.68 95.889 1.072 96.953 0.648C98.025 0.216 99.201 0 100.481 0C101.801 0 102.929 0.168 103.865 0.504C104.801 0.832 105.633 1.3 106.361 1.908L104.765 4.464C104.253 3.976 103.653 3.616 102.965 3.384C102.285 3.144 101.529 3.024 100.697 3.024C99.809 3.024 99.013 3.156 98.309 3.42C97.605 3.684 97.005 4.068 96.509 4.572C96.013 5.068 95.633 5.668 95.369 6.372C95.105 7.076 94.973 7.868 94.973 8.748C94.973 9.956 95.209 10.988 95.681 11.844C96.153 12.692 96.825 13.344 97.697 13.8C98.569 14.256 99.605 14.484 100.805 14.484C101.613 14.484 102.401 14.36 103.169 14.112C103.945 13.864 104.677 13.468 105.365 12.924L106.805 15.552C106.005 16.176 105.077 16.66 104.021 17.004C102.973 17.348 101.781 17.52 100.445 17.52Z" fill="#0D0D0D"/>
<path d="M109.271 17.16V0.359985H120.443V3.09599H112.391V7.16399H119.279V9.71999H112.391V14.4H120.527V17.16H109.271Z" fill="#0D0D0D"/>
<path d="M129.44 17.16V0.359985H134.864C136.552 0.359985 138.044 0.715985 139.34 1.42799C140.636 2.13999 141.648 3.12799 142.376 4.39199C143.104 5.65599 143.468 7.11599 143.468 8.77199C143.468 10.004 143.26 11.136 142.844 12.168C142.428 13.192 141.836 14.076 141.068 14.82C140.308 15.564 139.4 16.14 138.344 16.548C137.296 16.956 136.136 17.16 134.864 17.16H129.44ZM132.56 14.256H134.576C135.416 14.256 136.18 14.132 136.868 13.884C137.556 13.636 138.148 13.276 138.644 12.804C139.148 12.332 139.532 11.756 139.796 11.076C140.068 10.396 140.204 9.62799 140.204 8.77199C140.204 7.61199 139.968 6.62399 139.496 5.80799C139.032 4.98399 138.376 4.35599 137.528 3.92399C136.688 3.48399 135.704 3.26399 134.576 3.26399H132.56V14.256Z" fill="#0D0D0D"/>
<path d="M144.038 17.16L150.482 0.359985H153.962L160.538 17.16H157.022L155.594 13.356H148.837L147.457 17.16H144.038ZM149.605 10.704H154.802L152.161 3.88799L149.605 10.704Z" fill="#0D0D0D"/>
<path d="M164.646 17.16V3.21599H160.002V0.359985H172.422V3.21599H167.778V17.16H164.646Z" fill="#0D0D0D"/>
<path d="M171.893 17.16L178.337 0.359985H181.817L188.393 17.16H184.877L183.449 13.356H176.693L175.313 17.16H171.893ZM177.461 10.704H182.657L180.017 3.88799L177.461 10.704Z" fill="#0D0D0D"/>
<path d="M6.52795 45.52C5.46395 45.52 4.51995 45.308 3.69595 44.884C2.87195 44.46 2.22395 43.884 1.75195 43.156C1.27995 42.42 1.04395 41.58 1.04395 40.636C1.04395 39.956 1.19595 39.316 1.49995 38.716C1.80395 38.116 2.23594 37.576 2.79594 37.096C3.36394 36.608 4.04395 36.204 4.83595 35.884C4.37195 35.404 4.00395 34.968 3.73195 34.576C3.45995 34.176 3.26394 33.784 3.14394 33.4C3.02394 33.008 2.96394 32.592 2.96394 32.152C2.96394 31.384 3.17194 30.688 3.58794 30.064C4.01194 29.432 4.57595 28.932 5.27995 28.564C5.99195 28.188 6.77994 28 7.64394 28C8.53194 28 9.32394 28.172 10.0199 28.516C10.7239 28.852 11.28 29.32 11.688 29.92C12.096 30.52 12.2999 31.216 12.2999 32.008C12.2999 32.88 11.9999 33.672 11.3999 34.384C10.8079 35.088 9.92395 35.732 8.74795 36.316L11.9879 39.652C12.4439 39.084 12.8559 38.444 13.2239 37.732C13.5999 37.012 13.9519 36.16 14.2799 35.176L16.7279 36.148C16.5199 36.756 16.252 37.38 15.924 38.02C15.596 38.66 15.2359 39.28 14.8439 39.88C14.4519 40.472 14.048 41.004 13.632 41.476L17.0639 45.16H13.5359L11.8199 43.36C11.0759 44.04 10.2359 44.572 9.29995 44.956C8.37195 45.332 7.44795 45.52 6.52795 45.52ZM6.74395 42.976C7.36795 42.976 7.96795 42.852 8.54395 42.604C9.12795 42.356 9.66395 41.992 10.1519 41.512L6.41994 37.624C5.61994 37.912 4.99994 38.312 4.55994 38.824C4.11994 39.336 3.89995 39.908 3.89995 40.54C3.89995 41.276 4.15595 41.868 4.66795 42.316C5.18795 42.756 5.87995 42.976 6.74395 42.976ZM7.21194 34.792C8.03594 34.488 8.65194 34.116 9.05994 33.676C9.47594 33.236 9.68394 32.748 9.68394 32.212C9.68394 31.652 9.49595 31.196 9.11995 30.844C8.75195 30.492 8.26795 30.316 7.66795 30.316C7.08395 30.316 6.59595 30.488 6.20395 30.832C5.81995 31.176 5.62794 31.62 5.62794 32.164C5.62794 32.588 5.74795 33 5.98795 33.4C6.23595 33.8 6.64394 34.264 7.21194 34.792Z" fill="#0D0D0D"/>
<path d="M25.3228 45.16V28.36H31.6228C32.8308 28.36 33.9028 28.572 34.8388 28.996C35.7748 29.412 36.507 30.016 37.035 30.808C37.571 31.6 37.839 32.552 37.839 33.664C37.839 34.792 37.591 35.748 37.095 36.532C36.607 37.316 35.8948 37.916 34.9588 38.332C34.0228 38.74 32.8868 38.944 31.5508 38.944H28.4428V45.16H25.3228ZM28.4428 36.292H31.5388C32.5388 36.292 33.3188 36.084 33.8788 35.668C34.4388 35.252 34.7188 34.604 34.7188 33.724C34.7188 32.844 34.4308 32.184 33.8548 31.744C33.2868 31.296 32.5228 31.072 31.5628 31.072H28.4428V36.292Z" fill="#0D0D0D"/>
<path d="M40.481 45.16V28.36H51.653V31.096H43.601V35.164H50.489V37.72H43.601V42.4H51.737V45.16H40.481Z" fill="#0D0D0D"/>
<path d="M55.124 45.16V28.36H61.628C62.82 28.36 63.856 28.564 64.736 28.972C65.616 29.372 66.296 29.948 66.776 30.7C67.256 31.452 67.496 32.348 67.496 33.388C67.496 34.22 67.324 34.952 66.98 35.584C66.636 36.216 66.16 36.74 65.552 37.156C64.952 37.572 64.256 37.864 63.464 38.032L68.348 45.16H64.604L60.26 38.584H58.244V45.16H55.124ZM58.244 36.028H61.172C62.172 36.028 62.952 35.82 63.512 35.404C64.072 34.98 64.352 34.364 64.352 33.556C64.352 32.716 64.096 32.076 63.584 31.636C63.072 31.196 62.32 30.976 61.328 30.976H58.244V36.028Z" fill="#0D0D0D"/>
<path d="M71.009 45.16V28.36H81.617V31.216H74.129V35.596H80.885V38.356H74.129V45.16H71.009Z" fill="#0D0D0D"/>
<path d="M92.6681 45.52C91.3961 45.52 90.2161 45.3 89.1281 44.86C88.0481 44.412 87.1081 43.792 86.3081 43C85.5081 42.208 84.8881 41.28 84.4481 40.216C84.0081 39.152 83.7881 38 83.7881 36.76C83.7881 35.512 84.0081 34.356 84.4481 33.292C84.8881 32.228 85.5081 31.3 86.3081 30.508C87.1081 29.716 88.0481 29.1 89.1281 28.66C90.2161 28.22 91.3961 28 92.6681 28C93.9321 28 95.1041 28.224 96.1841 28.672C97.2641 29.12 98.2041 29.744 99.0041 30.544C99.8041 31.344 100.428 32.276 100.876 33.34C101.324 34.396 101.548 35.536 101.548 36.76C101.548 38 101.324 39.152 100.876 40.216C100.428 41.28 99.8041 42.208 99.0041 43C98.2041 43.792 97.2641 44.412 96.1841 44.86C95.1041 45.3 93.9321 45.52 92.6681 45.52ZM92.6681 42.58C93.4601 42.58 94.1961 42.444 94.8761 42.172C95.5641 41.892 96.1601 41.5 96.6641 40.996C97.1761 40.484 97.5721 39.872 97.8521 39.16C98.1401 38.44 98.2841 37.64 98.2841 36.76C98.2841 35.584 98.0361 34.56 97.5401 33.688C97.0441 32.816 96.3721 32.14 95.5241 31.66C94.6761 31.18 93.7241 30.94 92.6681 30.94C91.8681 30.94 91.1281 31.076 90.4481 31.348C89.7681 31.62 89.1721 32.012 88.6601 32.524C88.1561 33.036 87.7601 33.648 87.4721 34.36C87.1921 35.072 87.0521 35.872 87.0521 36.76C87.0521 37.936 87.2961 38.96 87.7841 39.832C88.2801 40.704 88.9521 41.38 89.8001 41.86C90.6481 42.34 91.6041 42.58 92.6681 42.58Z" fill="#0D0D0D"/>
<path d="M104.49 45.16V28.36H110.994C112.186 28.36 113.222 28.564 114.102 28.972C114.982 29.372 115.662 29.948 116.142 30.7C116.622 31.452 116.862 32.348 116.862 33.388C116.862 34.22 116.69 34.952 116.346 35.584C116.002 36.216 115.526 36.74 114.918 37.156C114.318 37.572 113.622 37.864 112.83 38.032L117.714 45.16H113.97L109.626 38.584H107.61V45.16H104.49ZM107.61 36.028H110.538C111.538 36.028 112.318 35.82 112.878 35.404C113.438 34.98 113.718 34.364 113.718 33.556C113.718 32.716 113.462 32.076 112.95 31.636C112.438 31.196 111.686 30.976 110.694 30.976H107.61V36.028Z" fill="#0D0D0D"/>
<path d="M120.375 45.16V28.36H123.387L130.083 39.328L128.859 39.34L135.279 28.36H138.255V45.16H135.219L135.267 32.44L135.843 32.644L130.419 41.692H128.223L122.667 32.644L123.183 32.44L123.231 45.16H120.375Z" fill="#0D0D0D"/>
<path d="M142.26 45.16V28.36H145.38V45.16H142.26Z" fill="#0D0D0D"/>
<path d="M149.379 45.16V28.36H152.403L160.359 39.928V28.36H163.395V45.16H160.371L152.415 33.448V45.16H149.379Z" fill="#0D0D0D"/>
<path d="M175.761 45.52C174.441 45.52 173.209 45.316 172.065 44.908C170.929 44.5 169.933 43.916 169.077 43.156C168.221 42.396 167.553 41.48 167.073 40.408C166.593 39.328 166.353 38.12 166.353 36.784C166.353 35.448 166.581 34.24 167.037 33.16C167.501 32.08 168.149 31.156 168.981 30.388C169.813 29.62 170.785 29.032 171.897 28.624C173.009 28.208 174.217 28 175.521 28C176.121 28 176.737 28.048 177.369 28.144C178.001 28.24 178.629 28.4 179.253 28.624C179.885 28.848 180.489 29.156 181.065 29.548L179.733 31.984C179.133 31.6 178.489 31.316 177.801 31.132C177.113 30.94 176.397 30.844 175.653 30.844C174.717 30.844 173.873 30.98 173.121 31.252C172.369 31.524 171.729 31.92 171.201 32.44C170.673 32.952 170.269 33.576 169.989 34.312C169.709 35.04 169.569 35.864 169.569 36.784C169.569 38.072 169.841 39.164 170.385 40.06C170.937 40.956 171.689 41.636 172.641 42.1C173.601 42.556 174.697 42.784 175.929 42.784C176.497 42.784 177.017 42.732 177.489 42.628C177.961 42.516 178.353 42.392 178.665 42.256V38.56H174.981V36.016H181.437V44.104C180.973 44.392 180.405 44.644 179.733 44.86C179.069 45.076 178.381 45.24 177.669 45.352C176.965 45.464 176.329 45.52 175.761 45.52Z" fill="#0D0D0D"/>
<path d="M188.81 45.16L195.254 28.36H198.734L205.31 45.16H201.794L200.366 41.356H193.61L192.23 45.16H188.81ZM194.378 38.704H199.574L196.934 31.888L194.378 38.704Z" fill="#0D0D0D"/>
<path d="M207.388 45.16V28.36H213.892C215.084 28.36 216.12 28.564 217 28.972C217.88 29.372 218.56 29.948 219.04 30.7C219.52 31.452 219.76 32.348 219.76 33.388C219.76 34.22 219.588 34.952 219.244 35.584C218.9 36.216 218.424 36.74 217.816 37.156C217.216 37.572 216.52 37.864 215.728 38.032L220.612 45.16H216.868L212.524 38.584H210.508V45.16H207.388ZM210.508 36.028H213.436C214.436 36.028 215.216 35.82 215.776 35.404C216.336 34.98 216.616 34.364 216.616 33.556C216.616 32.716 216.36 32.076 215.848 31.636C215.336 31.196 214.584 30.976 213.592 30.976H210.508V36.028Z" fill="#0D0D0D"/>
<path d="M226.381 45.16V31.216H221.737V28.36H234.157V31.216H229.513V45.16H226.381Z" fill="#0D0D0D"/>
<path d="M242.231 45.52C241.031 45.52 239.859 45.348 238.715 45.004C237.579 44.652 236.619 44.152 235.835 43.504L237.347 41.14C237.731 41.492 238.191 41.796 238.727 42.052C239.263 42.308 239.831 42.508 240.431 42.652C241.039 42.788 241.643 42.856 242.243 42.856C243.243 42.856 244.055 42.672 244.679 42.304C245.303 41.928 245.615 41.388 245.615 40.684C245.615 40.132 245.399 39.672 244.967 39.304C244.535 38.928 243.739 38.576 242.579 38.248L240.947 37.78C239.307 37.316 238.119 36.696 237.383 35.92C236.655 35.136 236.291 34.176 236.291 33.04C236.291 32.296 236.443 31.616 236.747 31C237.051 30.384 237.479 29.852 238.031 29.404C238.591 28.956 239.251 28.612 240.011 28.372C240.771 28.132 241.599 28.012 242.495 28.012C243.671 28.012 244.763 28.184 245.771 28.528C246.779 28.864 247.603 29.324 248.243 29.908L246.695 32.2C246.359 31.888 245.963 31.616 245.507 31.384C245.051 31.152 244.559 30.976 244.031 30.856C243.503 30.728 242.971 30.664 242.435 30.664C241.803 30.664 241.251 30.752 240.779 30.928C240.307 31.104 239.939 31.356 239.675 31.684C239.411 32.012 239.279 32.412 239.279 32.884C239.279 33.228 239.367 33.528 239.543 33.784C239.727 34.04 240.039 34.276 240.479 34.492C240.919 34.7 241.527 34.92 242.303 35.152L244.007 35.656C245.615 36.128 246.787 36.736 247.523 37.48C248.259 38.216 248.627 39.176 248.627 40.36C248.627 41.376 248.371 42.272 247.859 43.048C247.347 43.824 246.611 44.432 245.651 44.872C244.699 45.304 243.559 45.52 242.231 45.52Z" fill="#0D0D0D"/>
</svg>
