<svg width="115" height="30" viewBox="0 0 115 30" fill="none" xmlns="http://www.w3.org/2000/svg">
<path d="M0.959991 11.16L5.08415 0.408012H7.31135L11.52 11.16H9.26975L8.35583 8.72545H4.03199L3.14879 11.16H0.959991ZM4.52351 7.02817H7.84895L6.15935 2.66593L4.52351 7.02817Z" fill="#0D0D0D"/>
<path d="M17.0624 11.3904C16.0896 11.3904 15.273 11.1933 14.6125 10.7991C13.9572 10.4048 13.4631 9.86977 13.1303 9.19393C12.7975 8.51297 12.6311 7.74497 12.6311 6.88993V0.408012H14.6279V6.91297C14.6279 7.78337 14.8455 8.43361 15.2807 8.86369C15.7159 9.29377 16.3098 9.50881 17.0624 9.50881C17.8151 9.50881 18.4064 9.29377 18.8365 8.86369C19.2717 8.43361 19.4893 7.78337 19.4893 6.91297V0.408012H21.4938V6.88993C21.4938 7.74497 21.3274 8.51297 20.9946 9.19393C20.6618 9.86977 20.1677 10.4048 19.5123 10.7991C18.857 11.1933 18.0403 11.3904 17.0624 11.3904Z" fill="#0D0D0D"/>
<path d="M23.9916 11.16V0.408012H27.4629C28.5433 0.408012 29.4981 0.635852 30.3276 1.09153C31.157 1.54721 31.8047 2.17953 32.2706 2.98849C32.7365 3.79745 32.9695 4.73185 32.9695 5.79169C32.9695 6.58017 32.8364 7.30465 32.5701 7.96513C32.3039 8.62049 31.925 9.18625 31.4335 9.66241C30.9471 10.1386 30.366 10.5072 29.6901 10.7683C29.0194 11.0295 28.277 11.16 27.4629 11.16H23.9916ZM25.9884 9.30145H27.2786C27.8162 9.30145 28.3052 9.22209 28.7455 9.06337C29.1858 8.90465 29.5647 8.67425 29.8821 8.37217C30.2047 8.07009 30.4505 7.70145 30.6194 7.26625C30.7935 6.83105 30.8805 6.33953 30.8805 5.79169C30.8805 5.04929 30.7295 4.41697 30.4274 3.89473C30.1305 3.36737 29.7106 2.96545 29.1679 2.68897C28.6303 2.40737 28.0005 2.26657 27.2786 2.26657H25.9884V9.30145Z" fill="#0D0D0D"/>
<path d="M34.863 11.16V0.408012H36.8598V11.16H34.863Z" fill="#0D0D0D"/>
<path d="M39.4194 11.16V0.408012H46.5695V2.15905H41.4162V4.76257H45.8245V6.39841H41.4162V9.39361H46.6232V11.16H39.4194Z" fill="#0D0D0D"/>
<path d="M48.7908 11.16V0.408012H50.7261L55.818 7.81153V0.408012H57.761V11.16H55.8257L50.7338 3.66433V11.16H48.7908Z" fill="#0D0D0D"/>
<path d="M65.2451 11.3904C64.1289 11.3904 63.151 11.16 62.3113 10.6992C61.4716 10.2384 60.8188 9.59073 60.3529 8.75617C59.887 7.91649 59.654 6.93089 59.654 5.79937C59.654 4.97505 59.7897 4.22241 60.0611 3.54145C60.3375 2.85537 60.7267 2.26145 61.2284 1.75969C61.7353 1.25281 62.3292 0.863692 63.0102 0.592332C63.6963 0.315852 64.4489 0.177612 65.2681 0.177612C66.1129 0.177612 66.8348 0.285132 67.4339 0.500173C68.0329 0.710092 68.5654 1.00961 69.0313 1.39873L68.0099 3.03457C67.6822 2.72225 67.2982 2.49185 66.8579 2.34337C66.4227 2.18977 65.9388 2.11297 65.4063 2.11297C64.838 2.11297 64.3286 2.19745 63.878 2.36641C63.4275 2.53537 63.0435 2.78113 62.726 3.10369C62.4086 3.42113 62.1654 3.80513 61.9964 4.25569C61.8275 4.70625 61.743 5.21313 61.743 5.77633C61.743 6.54945 61.894 7.20993 62.1961 7.75777C62.4982 8.30049 62.9283 8.71777 63.4863 9.00961C64.0444 9.30145 64.7075 9.44737 65.4755 9.44737C65.9926 9.44737 66.4969 9.36801 66.9884 9.20929C67.4851 9.05057 67.9535 8.79713 68.3939 8.44897L69.3155 10.1309C68.8035 10.5303 68.2095 10.84 67.5337 11.0602C66.863 11.2803 66.1001 11.3904 65.2451 11.3904Z" fill="#0D0D0D"/>
<path d="M70.8936 11.16V0.408012H78.0437V2.15905H72.8904V4.76257H77.2987V6.39841H72.8904V9.39361H78.0974V11.16H70.8936Z" fill="#0D0D0D"/>
<path d="M2.18879 29.08V18.328H5.66015C6.74047 18.328 7.69535 18.5559 8.52479 19.0115C9.35423 19.4672 10.0019 20.0995 10.4678 20.9085C10.9338 21.7175 11.1667 22.6519 11.1667 23.7117C11.1667 24.5002 11.0336 25.2247 10.7674 25.8851C10.5011 26.5405 10.1222 27.1063 9.63071 27.5824C9.14431 28.0586 8.56319 28.4272 7.88735 28.6883C7.21663 28.9495 6.47423 29.08 5.66015 29.08H2.18879ZM4.18559 27.2215H5.47583C6.01343 27.2215 6.50239 27.1421 6.94271 26.9834C7.38303 26.8247 7.76191 26.5943 8.07935 26.2922C8.40191 25.9901 8.64767 25.6215 8.81663 25.1863C8.99071 24.7511 9.07775 24.2595 9.07775 23.7117C9.07775 22.9693 8.92671 22.337 8.62463 21.8147C8.32767 21.2874 7.90783 20.8855 7.36511 20.609C6.82751 20.3274 6.19775 20.1866 5.47583 20.1866H4.18559V27.2215Z" fill="#0D0D0D"/>
<path d="M11.5314 29.08L15.6556 18.328H17.8827L22.0914 29.08H19.8412L18.9272 26.6455H14.6034L13.7202 29.08H11.5314ZM15.0949 24.9482H18.4203L16.7308 20.5859L15.0949 24.9482Z" fill="#0D0D0D"/>
<path d="M24.7207 29.08V20.1559H21.7485V18.328H29.6973V20.1559H26.7252V29.08H24.7207Z" fill="#0D0D0D"/>
<path d="M29.3592 29.08L33.4833 18.328H35.7105L39.9192 29.08H37.6689L36.755 26.6455H32.4312L31.548 29.08H29.3592ZM32.9227 24.9482H36.2481L34.5585 20.5859L32.9227 24.9482Z" fill="#0D0D0D"/>
<path d="M44.7858 29.08V18.328H46.7826V27.2522H51.3445V29.08H44.7858Z" fill="#0D0D0D"/>
<path d="M53.0772 29.08V18.328H55.074V29.08H53.0772Z" fill="#0D0D0D"/>
<path d="M59.6227 29.08V20.1559H56.6505V18.328H64.5993V20.1559H61.6272V29.08H59.6227Z" fill="#0D0D0D"/>
<path d="M66.18 29.08V18.328H73.3301V20.0791H68.1768V22.6826H72.5851V24.3184H68.1768V27.3136H73.3838V29.08H66.18Z" fill="#0D0D0D"/>
<path d="M75.5514 29.08V18.328H79.7139C80.4768 18.328 81.1399 18.4586 81.7031 18.7197C82.2663 18.9757 82.7015 19.3443 83.0087 19.8256C83.3159 20.3069 83.4695 20.8803 83.4695 21.5459C83.4695 22.0784 83.3594 22.5469 83.1392 22.9514C82.9191 23.3559 82.6144 23.6912 82.2253 23.9575C81.8413 24.2237 81.3959 24.4106 80.889 24.5181L84.0147 29.08H81.6186L78.8384 24.8714H77.5482V29.08H75.5514ZM77.5482 23.2355H79.4221C80.0621 23.2355 80.5613 23.1024 80.9197 22.8362C81.2781 22.5648 81.4573 22.1706 81.4573 21.6535C81.4573 21.1159 81.2935 20.7063 80.9658 20.4247C80.6381 20.1431 80.1568 20.0023 79.5219 20.0023H77.5482V23.2355Z" fill="#0D0D0D"/>
<path d="M84.489 29.08L88.6131 18.328H90.8403L95.049 29.08H92.7987L91.8848 26.6455H87.561L86.6778 29.08H84.489ZM88.0525 24.9482H91.3779L89.6883 20.5859L88.0525 24.9482Z" fill="#0D0D0D"/>
<path d="M101.002 29.3104C99.8859 29.3104 98.908 29.08 98.0683 28.6192C97.2286 28.1584 96.5758 27.5107 96.1099 26.6762C95.644 25.8365 95.411 24.8509 95.411 23.7194C95.411 22.8951 95.5467 22.1424 95.8181 21.4615C96.0945 20.7754 96.4837 20.1815 96.9854 19.6797C97.4923 19.1728 98.0862 18.7837 98.7672 18.5123C99.4533 18.2359 100.206 18.0976 101.025 18.0976C101.87 18.0976 102.592 18.2051 103.191 18.4202C103.79 18.6301 104.322 18.9296 104.788 19.3187L103.767 20.9546C103.439 20.6423 103.055 20.4119 102.615 20.2634C102.18 20.1098 101.696 20.033 101.163 20.033C100.595 20.033 100.086 20.1175 99.635 20.2864C99.1845 20.4554 98.8005 20.7011 98.483 21.0237C98.1656 21.3411 97.9224 21.7251 97.7534 22.1757C97.5845 22.6263 97.5 23.1331 97.5 23.6963C97.5 24.4695 97.651 25.1299 97.9531 25.6778C98.2552 26.2205 98.6853 26.6378 99.2433 26.9296C99.8014 27.2215 100.464 27.3674 101.232 27.3674C101.75 27.3674 102.254 27.288 102.745 27.1293C103.242 26.9706 103.711 26.7171 104.151 26.369L105.072 28.0509C104.56 28.4503 103.967 28.76 103.291 28.9802C102.62 29.2003 101.857 29.3104 101.002 29.3104Z" fill="#0D0D0D"/>
<path d="M109.124 29.08V24.4874L105.337 18.328H107.603L110.168 22.5674L112.71 18.328H114.914L111.128 24.5027V29.08H109.124Z" fill="#0D0D0D"/>
</svg>
