<svg width="198" height="64" viewBox="0 0 198 64" fill="none" xmlns="http://www.w3.org/2000/svg">
<g id="logo">
<g id="Vector">
<path d="M15.0813 28.4058C15.0813 30.0572 14.0371 31.8223 11.1075 31.8223H5.10736V24.9903H11.1075C14.0371 24.9903 15.0813 26.755 15.0813 28.4058ZM11.4389 20.1818H0.0167895V43.8334H5.10736V36.6308H11.4389C16.6625 36.6308 20.1724 33.326 20.1724 28.4058C20.1724 23.4872 16.6625 20.1818 11.4389 20.1818Z" fill="#0E4194"/>
<path d="M105.628 28.4058C105.628 30.0572 104.583 31.8223 101.653 31.8223H95.6531V24.9903H101.653C104.583 24.9903 105.628 26.755 105.628 28.4058ZM101.984 20.1818H90.5625V43.8334H95.6531V36.6308H101.984C107.209 36.6308 110.718 33.326 110.718 28.4058C110.718 23.4872 107.209 20.1818 101.984 20.1818Z" fill="#0E4194"/>
<path d="M79.6161 29.2543C76.2648 28.8394 74.2108 28.4975 74.2108 26.7684C74.2108 25.4307 75.588 24.0815 78.6632 24.0815C80.9645 24.0815 82.7523 24.8623 84.6383 26.6933L84.9128 26.9589L88.6857 23.6222L88.3851 23.3206C85.9956 20.9234 82.7998 19.7089 78.8845 19.7089C73.1917 19.7089 68.899 22.8378 68.899 26.9871C68.899 32.6943 74.1529 33.3901 78.3756 33.9491C81.7608 34.3974 83.8164 34.7914 83.8164 36.4809C83.8164 38.6615 81.1717 39.4684 78.7008 39.4961C76.3285 39.4961 73.941 38.4157 72.148 36.531L71.8745 36.244L68.0212 39.6589L68.3114 39.9606C70.9733 42.7221 74.693 44.3056 78.5165 44.3056C83.6614 44.3056 89.1282 41.4867 89.1282 36.2627C89.1282 30.4344 83.8545 29.7799 79.6161 29.2543Z" fill="#0E4194"/>
<path d="M130.491 24.9905V20.182H112.151V43.8325H130.491V39.024H117.242V34.1205H126.634V29.3121H117.242V24.9905H130.491Z" fill="#0E4194"/>
<path d="M36.5266 28.4058C36.5266 30.2753 35.3415 31.5206 33.3439 31.7712L28.3358 24.9903H32.5528C35.4824 24.9903 36.5266 26.755 36.5266 28.4058ZM36.4781 36.0139C39.6634 34.8234 41.6182 31.9575 41.6182 28.4058C41.6182 23.4872 38.1083 20.1818 32.8841 20.1818H21.4626V43.8334H26.5526V30.9888L36.0413 43.8334H42.2549L36.4781 36.0139Z" fill="#0E4194"/>
<path d="M147.219 28.4058C147.219 30.2753 146.034 31.5206 144.036 31.7712L139.028 24.9903H143.245C146.175 24.9903 147.219 26.755 147.219 28.4058ZM147.17 36.0139C150.356 34.8234 152.31 31.9575 152.31 28.4058C152.31 23.4872 148.8 20.1818 143.576 20.1818H132.154V43.8334H137.245V30.9888L146.733 43.8334H152.946L147.17 36.0139Z" fill="#0E4194"/>
<path d="M62.4266 32.0067C62.4266 36.1315 59.0284 39.4874 54.8521 39.4874C50.6742 39.4874 47.276 36.1315 47.276 32.0067C47.276 27.8819 50.6742 24.5259 54.8521 24.5259C59.0284 24.5259 62.4266 27.8819 62.4266 32.0067ZM54.8511 19.7075C47.9846 19.7075 42.3978 25.2248 42.3978 32.0067C42.3978 38.788 47.9846 44.3048 54.8511 44.3048C61.718 44.3048 67.3048 38.788 67.3048 32.0067C67.3048 25.2248 61.718 19.7075 54.8511 19.7075Z" fill="#0E4194"/>
<path d="M173.565 32.0067C173.565 36.1315 170.166 39.4874 165.99 39.4874C161.813 39.4874 158.415 36.1315 158.415 32.0067C158.415 27.8819 161.813 24.5259 165.99 24.5259C170.166 24.5259 173.565 27.8819 173.565 32.0067ZM165.99 19.7075C159.124 19.7075 153.536 25.2248 153.536 32.0067C153.536 38.788 159.124 44.3048 165.99 44.3048C172.857 44.3048 178.444 38.788 178.444 32.0067C178.444 25.2248 172.857 19.7075 165.99 19.7075Z" fill="#0E4194"/>
<path d="M0.0169167 49.2187H8.08982V51.0616H1.95921V53.4233H6.23102V55.2662H1.95921V57.8957H8.08982V59.7386H0.0169167V49.2187Z" fill="#0E4194"/>
<path d="M27.5555 49.2187H35.6284V51.0616H29.4978V53.4233H33.7696V55.2662H29.4978V57.8957H35.6284V59.7386H27.5555V49.2187Z" fill="#0E4194"/>
<path d="M58.2197 49.2187H74.8154V51.0616H60.162V53.4233H72.9566V55.2662H60.162V57.8957H74.8154V59.7386H58.2197V49.2187Z" fill="#0E4194"/>
<path d="M21.3372 51.0619H18.2546V49.219H26.3615V51.0619H23.2795V59.7389H21.3372V51.0619Z" fill="#0E4194"/>
<path d="M38.7659 53.2892V59.7381H36.8225V49.0005L43.606 55.6676V49.2182H45.5483V59.9563L38.7659 53.2892Z" fill="#0E4194"/>
<path d="M49.0671 57.8958H51.5636C53.8247 57.8958 55.2645 56.3379 55.2645 54.4788C55.2645 52.6191 53.8247 51.0612 51.5636 51.0612H49.0671V57.8958ZM47.1248 49.2188H51.5636C55.1142 49.2188 57.2079 51.6979 57.2079 54.4788C57.2079 57.2596 55.0302 59.7387 51.5636 59.7387H47.1248V49.2188Z" fill="#0E4194"/>
<path d="M78.4414 57.8958H80.9368C83.1985 57.8958 84.6388 56.3379 84.6388 54.4788C84.6388 52.6191 83.1985 51.0612 80.9368 51.0612H78.4414V57.8958ZM76.4985 49.2188H80.9368C84.4885 49.2188 86.5816 51.6979 86.5816 54.4788C86.5816 57.2596 84.4039 59.7387 80.9368 59.7387H76.4985V49.2188Z" fill="#0E4194"/>
<path d="M92.5136 51.0619H89.431V49.219H97.5373V51.0619H94.4559V59.7389H92.5136V51.0619Z" fill="#0E4194"/>
<path d="M98.5176 49.2187H100.46V53.4233H105.267V49.2187H107.21V59.7386H105.267V55.2662H100.46V59.7386H98.5176V49.2187Z" fill="#0E4194"/>
<path d="M108.84 49.2187H116.913V51.0616H110.783V53.4233H115.054V55.2662H110.783V57.8957H116.913V59.7386H108.84V49.2187Z" fill="#0E4194"/>
<path d="M145.172 49.2187H153.245V51.0616H147.115V53.4233H151.386V55.2662H147.115V57.8957H153.245V59.7386H145.172V49.2187Z" fill="#0E4194"/>
<path d="M124.108 56.0194L122.584 52.2495L121.044 56.0194H124.108ZM122.071 49.2182H123.237L127.693 59.7381H125.598L124.795 57.7616H120.34L119.536 59.7381H117.46L122.071 49.2182Z" fill="#0E4194"/>
<path d="M129.052 51.0619H125.969V49.219H134.076V51.0619H130.995V59.7389H129.052V51.0619Z" fill="#0E4194"/>
<path d="M136.966 54.5791H139.881C141.254 54.5791 141.874 53.7586 141.874 52.8202C141.874 51.8818 141.254 51.0618 139.881 51.0618H136.966V54.5791ZM135.024 49.2189H140.032C142.377 49.2189 143.817 50.7596 143.817 52.8202C143.817 54.3447 142.762 55.5514 141.355 55.9867L143.984 59.7388H141.539L139.345 56.4225H136.966V59.7388H135.024V49.2189Z" fill="#0E4194"/>
<path d="M8.54751 49.2182H10.722L17.8483 59.7386H15.6738L8.54751 49.2182Z" fill="#0E4194"/>
<path d="M17.8483 49.2182H15.6743L8.54745 59.7386H10.722L17.8483 49.2182Z" fill="#0E4194"/>
<path d="M165.989 0C158.006 0 150.704 2.94836 145.093 7.80278L148.025 11.7725C152.808 7.51833 159.1 4.92697 165.989 4.92697C180.916 4.92697 193.059 17.0722 193.059 32.0003C193.059 46.9284 180.916 59.0735 165.989 59.0735V64C183.631 64 197.984 49.6455 197.984 32.0003C197.984 14.355 183.631 0 165.989 0Z" fill="#0E4194"/>
<path d="M165.989 9.85509C160.195 9.85509 154.918 12.0983 150.968 15.7555L153.915 19.745C157.025 16.6793 161.289 14.7815 165.989 14.7815C175.483 14.7815 183.206 22.5055 183.206 32.0004C183.206 41.4947 175.483 49.2187 165.989 49.2187V54.1456C178.199 54.1456 188.131 44.2108 188.131 32.0004C188.131 19.7899 178.199 9.85509 165.989 9.85509Z" fill="#0E4194"/>
<path d="M4.77643 8.59823V9.6854H1.11518V11.1259H4.04219V12.2136H1.11518V13.71H4.74877V14.7971H0V8.59823H4.77643Z" fill="#0E4194"/>
<path d="M8.01645 14.8991C6.69671 14.8991 5.65615 13.8579 5.65615 12.5197V8.59792H6.78959V12.5844C6.78959 13.2258 7.30048 13.802 8.01645 13.802C8.70371 13.802 9.24278 13.254 9.24278 12.5844V8.59792H10.358V12.5197C10.358 13.8396 9.32679 14.8991 8.01645 14.8991Z" fill="#0E4194"/>
<path d="M14.7808 9.68531H12.7461V11.4698H14.7902C15.3381 11.4698 15.7102 11.0794 15.7102 10.5872C15.7102 10.094 15.3381 9.68531 14.7808 9.68531ZM15.6079 14.797C15.4868 14.6018 14.3904 12.7803 14.2511 12.5475H12.7461V14.797H11.6304V8.59814H14.9013C16.0353 8.59814 16.8718 9.47184 16.8718 10.5872C16.8718 11.5068 16.2211 12.2318 15.5244 12.4087C15.6543 12.6128 16.8624 14.5924 17.0017 14.797H15.6079Z" fill="#0E4194"/>
<path d="M20.6947 9.54616C19.533 9.54616 18.613 10.5034 18.613 11.7022C18.613 12.9011 19.533 13.8489 20.7041 13.8489C21.8751 13.8489 22.7946 12.9011 22.7946 11.7022C22.7946 10.5034 21.8657 9.54616 20.6947 9.54616ZM20.7041 14.946C18.9016 14.946 17.4514 13.4956 17.4514 11.7022C17.4514 9.89898 18.9016 8.44908 20.6947 8.44908C22.4976 8.44908 23.9468 9.89898 23.9468 11.7022C23.9468 13.4956 22.4976 14.946 20.7041 14.946Z" fill="#0E4194"/>
<path d="M28.0765 9.69407H26.0413V11.5532H28.0765C28.5597 11.5532 28.9965 11.1622 28.9965 10.6236C28.9965 10.0751 28.5597 9.69407 28.0765 9.69407ZM28.1136 12.6403H26.0413V14.7964H24.9168V8.5975H28.0953C29.2381 8.5975 30.1394 9.49887 30.1394 10.6236C30.1394 11.6831 29.2752 12.6403 28.1136 12.6403Z" fill="#0E4194"/>
<path d="M35.6437 8.59823V9.6854H31.9829V11.1259H34.91V12.2136H31.9829V13.71H35.616V14.7971H30.8672V8.59823H35.6437Z" fill="#0E4194"/>
<path d="M39.1365 10.4094C39.0343 10.6417 38.3371 12.2309 38.2724 12.399H40.0007C39.9449 12.2774 39.22 10.6234 39.1365 10.4094ZM41.0042 14.7962C40.9484 14.6568 40.5116 13.6532 40.4375 13.4862H37.8544C37.7985 13.5973 37.343 14.6568 37.2871 14.7962H36.0702C36.1443 14.6292 38.6815 8.662 38.7274 8.56023H39.5545C39.5921 8.65313 42.1382 14.5639 42.2399 14.7962H41.0042Z" fill="#0E4194"/>
<path d="M43.976 11.0603V14.7962H42.8603V8.495C43.1301 8.75544 46.3081 12.0175 46.6238 12.3338V8.5973H47.7296V14.9173C47.4045 14.5827 44.2823 11.3765 43.976 11.0603Z" fill="#0E4194"/>
<path d="M53.433 9.68531V14.797H52.2901V9.68531H50.4872V8.59814H55.1801V9.68531H53.433Z" fill="#0E4194"/>
<path d="M59.7352 14.7968V12.2597H56.9194V14.7968H55.7948V8.59792H56.9194V11.1538H59.7352V8.59792H60.8687V14.7968H59.7352Z" fill="#0E4194"/>
<path d="M66.9491 8.59823V9.6854H63.2883V11.1259H66.2154V12.2136H63.2883V13.71H66.9214V14.7971H62.1732V8.59823H66.9491Z" fill="#0E4194"/>
<path d="M70.4421 10.4094C70.3398 10.6417 69.6432 12.2309 69.5779 12.399H71.3063C71.2504 12.2774 70.5256 10.6234 70.4421 10.4094ZM72.3098 14.7962C72.2544 14.6568 71.8177 13.6532 71.743 13.4862H69.1599C69.1041 13.5973 68.6485 14.6568 68.5927 14.7962H67.3757C67.4498 14.6292 69.987 8.662 70.0335 8.56023H70.8606C70.8977 8.65313 73.4437 14.5639 73.546 14.7962H72.3098Z" fill="#0E4194"/>
<path d="M75.9077 9.68531V14.797H74.7649V9.68531H72.9619V8.59814H77.6549V9.68531H75.9077Z" fill="#0E4194"/>
<path d="M81.4196 9.68531H79.3844V11.4698H81.429C81.9769 11.4698 82.3484 11.0794 82.3484 10.5872C82.3484 10.094 81.9769 9.68531 81.4196 9.68531ZM82.2462 14.797C82.1256 14.6018 81.0292 12.7803 80.8899 12.5475H79.3844V14.797H78.2692V8.59814H81.5401C82.6741 8.59814 83.5101 9.47184 83.5101 10.5872C83.5101 11.5068 82.8599 12.2318 82.1627 12.4087C82.2926 12.6128 83.5007 14.5924 83.64 14.797H82.2462Z" fill="#0E4194"/>
<path d="M89.2773 8.59823V9.6854H85.6161V11.1259H88.5431V12.2136H85.6161V13.71H89.2497V14.7971H84.5009V8.59823H89.2773Z" fill="#0E4194"/>
<path d="M95.4091 9.69407H93.374V11.5532H95.4091C95.8924 11.5532 96.3291 11.1622 96.3291 10.6236C96.3291 10.0751 95.8924 9.69407 95.4091 9.69407ZM95.4462 12.6403H93.374V14.7964H92.2494V8.5975H95.4279C96.5708 8.5975 97.472 9.49887 97.472 10.6236C97.472 11.6831 96.6078 12.6403 95.4462 12.6403Z" fill="#0E4194"/>
<path d="M101.351 9.68531H99.3159V11.4698H101.361C101.908 11.4698 102.281 11.0794 102.281 10.5872C102.281 10.094 101.908 9.68531 101.351 9.68531ZM102.178 14.797C102.057 14.6018 100.961 12.7803 100.821 12.5475H99.3159V14.797H98.2008V8.59814H101.472C102.606 8.59814 103.442 9.47184 103.442 10.5872C103.442 11.5068 102.791 12.2318 102.094 12.4087C102.224 12.6128 103.433 14.5924 103.572 14.797H102.178Z" fill="#0E4194"/>
<path d="M107.263 9.54616C106.102 9.54616 105.182 10.5034 105.182 11.7022C105.182 12.9011 106.102 13.8489 107.273 13.8489C108.444 13.8489 109.364 12.9011 109.364 11.7022C109.364 10.5034 108.435 9.54616 107.263 9.54616ZM107.273 14.946C105.47 14.946 104.021 13.4956 104.021 11.7022C104.021 9.89898 105.47 8.44908 107.263 8.44908C109.066 8.44908 110.516 9.89898 110.516 11.7022C110.516 13.4956 109.066 14.946 107.273 14.946Z" fill="#0E4194"/>
<path d="M112.374 14.5363C112.059 14.8338 111.501 15.3077 111.315 15.4658C111.195 15.3171 110.767 14.7873 110.618 14.6109C110.795 14.4622 111.427 13.923 111.65 13.6908C111.892 13.4674 111.984 13.2356 111.984 12.8077V9.69438H110.897V8.59782H113.09V12.8265C113.09 13.6443 112.905 14.0624 112.374 14.5363Z" fill="#0E4194"/>
<path d="M119.117 8.59823V9.6854H115.457V11.1259H118.384V12.2136H115.457V13.71H119.09V14.7971H114.342V8.59823H119.117Z" fill="#0E4194"/>
<path d="M122.867 8.44854C123.908 8.44854 124.716 8.93184 125.227 9.48038C125.144 9.56389 124.549 10.1772 124.428 10.2883C124.094 9.92611 123.592 9.56389 122.867 9.56389C121.724 9.56389 120.776 10.5117 120.776 11.7012C120.776 12.863 121.715 13.8296 122.867 13.8296C123.499 13.8296 124.057 13.5232 124.437 13.0864C124.54 13.1881 125.134 13.7831 125.227 13.876C124.726 14.4152 123.898 14.9449 122.867 14.9449C121.101 14.9449 119.605 13.5415 119.605 11.7012C119.605 9.87078 121.083 8.44854 122.867 8.44854Z" fill="#0E4194"/>
<path d="M128.526 9.68531V14.797H127.383V9.68531H125.58V8.59814H130.273V9.68531H128.526Z" fill="#0E4194"/>
</g>
</g>
</svg>
