<svg width="198" height="56" viewBox="0 0 198 56" fill="none" xmlns="http://www.w3.org/2000/svg">
<g id="logo-content">
<g id="Vector">
<path d="M0.984131 47.5083H51.1502V55.6478H0.984131V47.5083Z" fill="#5E2659"/>
<path d="M4.27184 54.3189V49.3561H3.16087V48.8957H4.82001V54.3189H4.27184Z" fill="white"/>
<path d="M7.76998 51.0811L7.64573 50.5987C8.01849 50.4525 8.36201 50.3282 8.77131 50.3282C9.51682 50.3282 9.96998 50.9422 9.96998 51.5927V53.2884C9.96998 53.6465 10.0211 54.012 10.1381 54.3482L9.62646 54.4139L9.48759 53.9242C9.22446 54.2385 8.9248 54.3993 8.51549 54.3993C7.76998 54.3993 7.35337 53.8146 7.35337 53.1203C7.35337 52.3674 7.81383 51.7096 8.6032 51.7096C8.89556 51.7096 9.1733 51.7973 9.42181 51.8997V51.5269C9.42181 51.0957 9.15868 50.7887 8.74938 50.7887C8.40586 50.7887 8.08427 50.9495 7.76998 51.0811ZM9.42181 53.2664V52.3601C9.18792 52.2578 8.93941 52.1701 8.67629 52.1701C8.12081 52.1701 7.90154 52.6525 7.90154 53.1495C7.90154 53.5149 8.09157 53.9389 8.51549 53.9389C8.93941 53.9389 9.19523 53.5807 9.42181 53.2664Z" fill="white"/>
<path d="M11.7651 48.8957H12.3133V50.5475C12.591 50.4013 12.8249 50.3282 13.1465 50.3282C13.7751 50.3282 14.7399 50.8399 14.7399 52.3309C14.7399 53.8658 13.8555 54.3993 13.1685 54.3993C12.7153 54.3993 12.5399 54.2458 12.211 53.9535L12.094 54.392L11.5751 54.3262C11.7359 53.8658 11.7651 53.3688 11.7651 52.8718V48.8957ZM12.3133 51.103V53.2518C12.4814 53.61 12.7153 53.9389 13.1611 53.9389C13.5193 53.9389 14.1917 53.6319 14.1917 52.3528C14.1917 51.2638 13.6435 50.7887 13.0588 50.7887C12.7884 50.7887 12.5326 50.9276 12.3133 51.103Z" fill="white"/>
<path d="M17.434 54.3993C16.7543 54.3993 15.8845 53.9462 15.8845 52.3674C15.8845 50.8545 16.6885 50.3282 17.434 50.3282C18.8154 50.3282 18.9908 51.7316 18.9908 52.3674C18.9908 53.8804 18.1869 54.3993 17.434 54.3993ZM17.434 53.9389C18.2892 53.9389 18.4427 53.0399 18.4427 52.3674C18.4427 51.695 18.2892 50.7887 17.434 50.7887C16.5789 50.7887 16.4327 51.695 16.4327 52.3674C16.4327 53.0399 16.5789 53.9389 17.434 53.9389Z" fill="white"/>
<path d="M21.2465 52.689V54.3189H20.6983V52.0751C20.6983 51.4246 20.6471 50.8983 20.5448 50.4086H21.0784L21.2026 51.1541C21.5023 50.6937 21.8312 50.3282 22.4159 50.3282C23.1468 50.3282 23.3222 51.0445 23.3222 51.6365H22.774C22.7594 51.3442 22.8033 50.7887 22.3867 50.7887C21.9847 50.7887 21.2465 51.4027 21.2465 52.689Z" fill="white"/>
<path d="M25.0077 51.0811L24.8835 50.5987C25.2562 50.4525 25.5998 50.3282 26.0091 50.3282C26.7546 50.3282 27.2077 50.9422 27.2077 51.5927V53.2884C27.2077 53.6465 27.2589 54.012 27.3758 54.3482L26.8642 54.4139L26.7253 53.9242C26.4622 54.2385 26.1625 54.3993 25.7532 54.3993C25.0077 54.3993 24.5911 53.8146 24.5911 53.1203C24.5911 52.3674 25.0516 51.7096 25.841 51.7096C26.1333 51.7096 26.4111 51.7973 26.6596 51.8997V51.5269C26.6596 51.0957 26.3964 50.7887 25.9871 50.7887C25.6436 50.7887 25.322 50.9495 25.0077 51.0811ZM26.6596 53.2664V52.3601C26.4257 52.2578 26.1772 52.1701 25.914 52.1701C25.3586 52.1701 25.1393 52.6525 25.1393 53.1495C25.1393 53.5149 25.3293 53.9389 25.7532 53.9389C26.1772 53.9389 26.433 53.5807 26.6596 53.2664Z" fill="white"/>
<path d="M31.5464 50.4086V50.8691H30.1504V53.0983C30.1504 53.4784 30.1577 53.9389 30.6547 53.9389C31.0713 53.9389 31.3271 53.5953 31.4806 53.2518L32.0069 53.3834C31.7437 53.9462 31.2979 54.3993 30.6401 54.3993C30.0042 54.3993 29.6022 54.0924 29.6022 52.9229V50.8691H28.7617V50.4086H29.6022V49.21H30.1504V50.4086H31.5464Z" fill="white"/>
<path d="M34.6718 54.3993C33.9921 54.3993 33.1223 53.9462 33.1223 52.3674C33.1223 50.8545 33.9263 50.3282 34.6718 50.3282C36.0532 50.3282 36.2286 51.7316 36.2286 52.3674C36.2286 53.8804 35.4246 54.3993 34.6718 54.3993ZM34.6718 53.9389C35.5269 53.9389 35.6804 53.0399 35.6804 52.3674C35.6804 51.695 35.5269 50.7887 34.6718 50.7887C33.8166 50.7887 33.6705 51.695 33.6705 52.3674C33.6705 53.0399 33.8166 53.9389 34.6718 53.9389Z" fill="white"/>
<path d="M38.8058 54.3189V50.8691H37.6948V50.4086H39.354V54.3189H38.8058ZM39.0616 48.9541C39.3174 48.9541 39.5221 49.1515 39.5221 49.4146C39.5221 49.6777 39.3174 49.8751 39.0616 49.8751C38.8058 49.8751 38.6012 49.6777 38.6012 49.4146C38.6012 49.1515 38.8058 48.9541 39.0616 48.9541Z" fill="white"/>
<path d="M42.7936 52.689V54.3189H42.2455V52.0751C42.2455 51.4246 42.1943 50.8983 42.092 50.4086H42.6255L42.7498 51.1541C43.0495 50.6937 43.3784 50.3282 43.9631 50.3282C44.694 50.3282 44.8694 51.0445 44.8694 51.6365H44.3212C44.3066 51.3442 44.3505 50.7887 43.9338 50.7887C43.5319 50.7887 42.7936 51.4027 42.7936 52.689Z" fill="white"/>
<path d="M49.1935 52.5063H46.5915C46.6207 53.5807 47.1031 53.9389 47.7024 53.9389C48.1337 53.9389 48.5649 53.7415 48.923 53.5223L49.1569 54.012C48.6672 54.2312 48.1994 54.3993 47.6586 54.3993C46.5037 54.3993 46.0433 53.4053 46.0433 52.3894C46.0433 51.3661 46.5184 50.3282 47.6878 50.3282C48.9888 50.3282 49.1935 51.7827 49.1935 52.2066V52.5063ZM46.5842 52.0458H48.6453C48.6234 51.4027 48.2579 50.7887 47.644 50.7887C47.03 50.7887 46.7303 51.2565 46.5842 52.0458Z" fill="white"/>
<path d="M53.808 47.5083H91.0173V55.6478H53.808V47.5083Z" fill="#58BED3"/>
<path d="M58.5137 50.4086V50.8691H57.1177V53.0983C57.1177 53.4784 57.125 53.9389 57.622 53.9389C58.0386 53.9389 58.2944 53.5953 58.4479 53.2518L58.9742 53.3834C58.711 53.9462 58.2652 54.3993 57.6074 54.3993C56.9715 54.3993 56.5695 54.0924 56.5695 52.9229V50.8691H55.729V50.4086H56.5695V49.21H57.1177V50.4086H58.5137Z" fill="white"/>
<path d="M60.3088 54.3189V48.8957H60.857V50.9714C61.1348 50.5987 61.5514 50.3282 62.0338 50.3282C62.5015 50.3282 63.0424 50.4744 63.0424 52.0751V54.3189H62.4942V52.0312C62.4942 51.6731 62.4942 50.7887 61.9972 50.7887C61.5879 50.7887 61.2225 51.1541 61.0544 51.4977C60.8424 51.9362 60.857 52.3747 60.857 52.8644V54.3189H60.3088Z" fill="white"/>
<path d="M67.5419 52.5063H64.9399C64.9691 53.5807 65.4515 53.9389 66.0508 53.9389C66.4821 53.9389 66.9133 53.7415 67.2714 53.5223L67.5053 54.012C67.0156 54.2312 66.5479 54.3993 66.007 54.3993C64.8522 54.3993 64.3917 53.4053 64.3917 52.3894C64.3917 51.3661 64.8668 50.3282 66.0362 50.3282C67.3372 50.3282 67.5419 51.7827 67.5419 52.2066V52.5063ZM64.9326 52.0458H66.9937C66.9718 51.4027 66.6063 50.7887 65.9924 50.7887C65.3784 50.7887 65.0787 51.2565 64.9326 52.0458ZM66.5552 48.6545L66.9498 49.1076L65.5392 50.0505L65.2615 49.6924L66.5552 48.6545Z" fill="white"/>
<path d="M69.2128 51.0811L69.0885 50.5987C69.4613 50.4525 69.8048 50.3282 70.2141 50.3282C70.9596 50.3282 71.4128 50.9422 71.4128 51.5927V53.2884C71.4128 53.6465 71.4639 54.012 71.5809 54.3482L71.0693 54.4139L70.9304 53.9242C70.6673 54.2385 70.3676 54.3993 69.9583 54.3993C69.2128 54.3993 68.7962 53.8146 68.7962 53.1203C68.7962 52.3674 69.2566 51.7096 70.046 51.7096C70.3383 51.7096 70.6161 51.7973 70.8646 51.8997V51.5269C70.8646 51.0957 70.6015 50.7887 70.1922 50.7887C69.8486 50.7887 69.5271 50.9495 69.2128 51.0811ZM70.8646 53.2664V52.3601C70.6307 52.2578 70.3822 52.1701 70.1191 52.1701C69.5636 52.1701 69.3443 52.6525 69.3443 53.1495C69.3443 53.5149 69.5344 53.9389 69.9583 53.9389C70.3822 53.9389 70.638 53.5807 70.8646 53.2664ZM70.2579 49.3196L69.242 50.0724L68.9496 49.7581L70.2579 48.6399L71.5663 49.7581L71.2812 50.0724L70.2579 49.3196Z" fill="white"/>
<path d="M75.7514 50.4086V50.8691H74.3554V53.0983C74.3554 53.4784 74.3627 53.9389 74.8597 53.9389C75.2764 53.9389 75.5322 53.5953 75.6857 53.2518L76.2119 53.3834C75.9488 53.9462 75.5029 54.3993 74.8451 54.3993C74.2093 54.3993 73.8073 54.0924 73.8073 52.9229V50.8691H72.9667V50.4086H73.8073V49.21H74.3554V50.4086H75.7514Z" fill="white"/>
<path d="M78.3798 52.689V54.3189H77.8316V52.0751C77.8316 51.4246 77.7805 50.8983 77.6782 50.4086H78.2117L78.336 51.1541C78.6356 50.6937 78.9645 50.3282 79.5493 50.3282C80.2802 50.3282 80.4556 51.0445 80.4556 51.6365H79.9074C79.8928 51.3442 79.9366 50.7887 79.52 50.7887C79.118 50.7887 78.3798 51.4027 78.3798 52.689Z" fill="white"/>
<path d="M84.7796 52.5063H82.1776C82.2069 53.5807 82.6893 53.9389 83.2886 53.9389C83.7198 53.9389 84.151 53.7415 84.5092 53.5223L84.7431 54.012C84.2534 54.2312 83.7856 54.3993 83.2447 54.3993C82.0899 54.3993 81.6294 53.4053 81.6294 52.3894C81.6294 51.3661 82.1045 50.3282 83.274 50.3282C84.575 50.3282 84.7796 51.7827 84.7796 52.2066V52.5063ZM82.1703 52.0458H84.2314C84.2095 51.4027 83.8441 50.7887 83.2301 50.7887C82.6162 50.7887 82.3165 51.2565 82.1703 52.0458Z" fill="white"/>
<path d="M88.6944 50.7814L88.4532 51.2272C88.1462 51.008 87.8027 50.7887 87.408 50.7887C87.0791 50.7887 86.7721 51.0299 86.7721 51.3807C86.7721 51.7608 87.2253 51.9508 87.5249 52.0605C88.1389 52.287 88.7821 52.5429 88.7821 53.3176C88.7821 53.9608 88.1974 54.3993 87.5907 54.3993C86.9987 54.3993 86.414 54.107 85.9827 53.7196L86.2824 53.2811C86.5894 53.61 87.0937 53.9389 87.5542 53.9389C87.9196 53.9389 88.2339 53.7342 88.2339 53.3395C88.2339 52.8279 87.8246 52.689 87.4226 52.5355C86.8671 52.3236 86.2239 52.0605 86.2239 51.3588C86.2239 50.7887 86.7502 50.3282 87.4299 50.3282C87.9196 50.3282 88.307 50.5036 88.6944 50.7814Z" fill="white"/>
<path d="M93.6752 47.5083H100.818V55.6478H93.6752V47.5083Z" fill="#CF6720"/>
<path d="M97.7522 53.4419L96.7509 51.9216C96.4439 52.2943 96.1296 52.711 96.1296 53.2153C96.1296 53.6538 96.3708 53.9608 96.8313 53.9608C97.2187 53.9608 97.5403 53.7635 97.7522 53.4419ZM98.337 53.3761L98.9728 54.0997L98.5416 54.4213L98.0446 53.8438C97.7303 54.2166 97.3137 54.4213 96.8313 54.4213C96.1004 54.4213 95.5815 53.9681 95.5815 53.2226C95.5815 52.499 96.0054 51.9654 96.4585 51.4465C96.21 51.0445 95.9688 50.6352 95.9688 50.1528C95.9688 49.2684 96.5682 48.9541 96.9336 48.9541C97.511 48.9541 97.8692 49.4365 97.8692 49.9774C97.8692 50.6133 97.4964 51.0299 97.109 51.4831L97.9715 52.8718C97.9934 52.7621 98.008 52.6379 98.0227 52.5063C98.0519 52.1993 98.0519 51.8631 98.0519 51.6292H98.5854C98.5781 52.2139 98.5562 52.8206 98.337 53.3761ZM96.824 51.0299C97.0506 50.6864 97.321 50.3794 97.321 49.9482C97.321 49.7362 97.2041 49.4146 96.9409 49.4146C96.6267 49.4146 96.517 49.8312 96.517 50.0797C96.517 50.4452 96.6413 50.7229 96.824 51.0299Z" fill="white"/>
<path d="M103.476 47.5083H197.33V55.6478H103.476V47.5083Z" fill="#BC619F"/>
<path d="M194.049 50.9641L193.807 51.41C193.5 51.1907 193.157 50.9714 192.762 50.9714C192.433 50.9714 192.126 51.2126 192.126 51.5635C192.126 51.9435 192.58 52.1336 192.879 52.2432C193.493 52.4698 194.136 52.7256 194.136 53.5003C194.136 54.1435 193.552 54.5821 192.945 54.5821C192.353 54.5821 191.768 54.2897 191.337 53.9023L191.637 53.4638C191.944 53.7927 192.448 54.1216 192.908 54.1216C193.274 54.1216 193.588 53.9169 193.588 53.5223C193.588 53.0106 193.179 52.8718 192.777 52.7183C192.221 52.5063 191.578 52.2432 191.578 51.5415C191.578 50.9714 192.104 50.511 192.784 50.511C193.274 50.511 193.661 50.6864 194.049 50.9641Z" fill="white"/>
<path d="M190.134 52.689H187.532C187.561 53.7635 188.043 54.1216 188.643 54.1216C189.074 54.1216 189.505 53.9242 189.863 53.705L190.097 54.1947C189.608 54.4139 189.14 54.5821 188.599 54.5821C187.444 54.5821 186.984 53.588 186.984 52.5721C186.984 51.5488 187.459 50.511 188.628 50.511C189.929 50.511 190.134 51.9654 190.134 52.3894V52.689ZM187.525 52.2286H189.586C189.564 51.5854 189.198 50.9714 188.584 50.9714C187.97 50.9714 187.671 51.4392 187.525 52.2286Z" fill="white"/>
<path d="M185.072 52.192V50.5914H185.62V52.4844C185.62 53.1641 185.634 53.8365 185.788 54.5017H185.269L185.145 53.7488C184.889 54.1801 184.363 54.5821 183.858 54.5821C183.164 54.5821 182.872 53.99 182.872 53.3103V50.5914H183.42V53.1495C183.42 53.5149 183.42 54.1216 183.902 54.1216C184.443 54.1216 185.072 53.5149 185.072 52.192Z" fill="white"/>
<path d="M181.259 56H180.711V54.3555C180.441 54.5017 180.214 54.5821 179.885 54.5821C179.249 54.5821 178.292 54.0631 178.292 52.5721C178.292 51.0372 179.176 50.511 179.863 50.511C180.316 50.511 180.492 50.6571 180.821 50.9495L180.93 50.5183L181.449 50.584C181.303 51.0445 181.259 51.505 181.259 51.9874V56ZM180.711 53.8V51.6146C180.521 51.2638 180.309 50.9714 179.878 50.9714C179.512 50.9714 178.84 51.2711 178.84 52.5502C178.84 53.5661 179.33 54.1216 179.973 54.1216C180.251 54.1216 180.499 53.9754 180.711 53.8Z" fill="white"/>
<path d="M175.437 54.5017V51.0518H174.326V50.5914H175.985V54.5017H175.437ZM175.693 49.1369C175.948 49.1369 176.153 49.3342 176.153 49.5973C176.153 49.8605 175.948 50.0578 175.693 50.0578C175.437 50.0578 175.232 49.8605 175.232 49.5973C175.232 49.3342 175.437 49.1369 175.693 49.1369Z" fill="white"/>
<path d="M170.806 52.8718V54.5017H170.258V52.2578C170.258 51.6073 170.206 51.0811 170.104 50.5914H170.638L170.762 51.3369C171.062 50.8764 171.39 50.511 171.975 50.511C172.706 50.511 172.882 51.2272 172.882 51.8193H172.333C172.319 51.5269 172.363 50.9714 171.946 50.9714C171.544 50.9714 170.806 51.5854 170.806 52.8718Z" fill="white"/>
<path d="M168.587 52.689H165.985C166.014 53.7635 166.496 54.1216 167.096 54.1216C167.527 54.1216 167.958 53.9242 168.316 53.705L168.55 54.1947C168.06 54.4139 167.593 54.5821 167.052 54.5821C165.897 54.5821 165.437 53.588 165.437 52.5721C165.437 51.5488 165.912 50.511 167.081 50.511C168.382 50.511 168.587 51.9654 168.587 52.3894V52.689ZM165.977 52.2286H168.038C168.017 51.5854 167.651 50.9714 167.037 50.9714C166.423 50.9714 166.124 51.4392 165.977 52.2286ZM167.6 48.8372L167.995 49.2904L166.584 50.2332L166.306 49.8751L167.6 48.8372Z" fill="white"/>
<path d="M160.988 54.5017V51.8046C160.988 51.2711 160.915 50.9203 160.827 50.511H161.376L161.456 50.8618C161.69 50.6571 161.895 50.511 162.223 50.511C162.582 50.511 162.677 50.5987 162.889 50.8691C163.115 50.6644 163.32 50.511 163.641 50.511C164.168 50.511 164.504 50.8545 164.504 51.3807V54.5017H163.956V51.3807C163.956 51.1176 163.817 50.9714 163.598 50.9714C163.349 50.9714 163.137 51.1761 163.02 51.3807V54.5017H162.472V51.4173C162.472 51.2126 162.413 50.9714 162.165 50.9714C161.902 50.9714 161.639 51.2053 161.536 51.4465V54.5017H160.988Z" fill="white"/>
<path d="M159.215 52.192V50.5914H159.763V52.4844C159.763 53.1641 159.778 53.8365 159.931 54.5017H159.412L159.288 53.7488C159.032 54.1801 158.506 54.5821 158.002 54.5821C157.307 54.5821 157.015 53.99 157.015 53.3103V50.5914H157.563V53.1495C157.563 53.5149 157.563 54.1216 158.046 54.1216C158.586 54.1216 159.215 53.5149 159.215 52.192Z" fill="white"/>
<path d="M153.232 52.8718V54.5017H152.684V52.5355C152.684 51.8777 152.654 51.2126 152.508 50.5914H153.034L153.159 51.3076C153.436 50.8472 153.941 50.511 154.489 50.511C155.11 50.511 155.432 51.0811 155.432 51.7462V54.5017H154.884V51.907C154.884 51.5342 154.884 50.9714 154.401 50.9714C153.882 50.9714 153.232 51.4977 153.232 52.8718Z" fill="white"/>
<path d="M146.645 50.9641L146.404 51.41C146.097 51.1907 145.753 50.9714 145.358 50.9714C145.03 50.9714 144.723 51.2126 144.723 51.5635C144.723 51.9435 145.176 52.1336 145.475 52.2432C146.089 52.4698 146.732 52.7256 146.732 53.5003C146.732 54.1435 146.148 54.5821 145.541 54.5821C144.949 54.5821 144.364 54.2897 143.933 53.9023L144.233 53.4638C144.54 53.7927 145.044 54.1216 145.505 54.1216C145.87 54.1216 146.184 53.9169 146.184 53.5223C146.184 53.0106 145.775 52.8718 145.373 52.7183C144.818 52.5063 144.174 52.2432 144.174 51.5415C144.174 50.9714 144.701 50.511 145.38 50.511C145.87 50.511 146.257 50.6864 146.645 50.9641Z" fill="white"/>
<path d="M140.303 52.8718V54.5017H139.755V52.5355C139.755 51.8777 139.726 51.2126 139.58 50.5914H140.106L140.23 51.3076C140.508 50.8472 141.012 50.511 141.561 50.511C142.182 50.511 142.503 51.0811 142.503 51.7462V54.5017H141.955V51.907C141.955 51.5342 141.955 50.9714 141.473 50.9714C140.954 50.9714 140.303 51.4977 140.303 52.8718Z" fill="white"/>
<path d="M136.827 54.5821C136.148 54.5821 135.278 54.1289 135.278 52.5502C135.278 51.0372 136.082 50.511 136.827 50.511C138.209 50.511 138.384 51.9143 138.384 52.5502C138.384 54.0631 137.58 54.5821 136.827 54.5821ZM136.827 54.1216C137.682 54.1216 137.836 53.2226 137.836 52.5502C137.836 51.8777 137.682 50.9714 136.827 50.9714C135.972 50.9714 135.826 51.8777 135.826 52.5502C135.826 53.2226 135.972 54.1216 136.827 54.1216Z" fill="white"/>
<path d="M132.342 54.5017V51.0518H131.231V50.5914H132.891V54.5017H132.342ZM132.598 49.1369C132.854 49.1369 133.059 49.3342 133.059 49.5973C133.059 49.8605 132.854 50.0578 132.598 50.0578C132.342 50.0578 132.138 49.8605 132.138 49.5973C132.138 49.3342 132.342 49.1369 132.598 49.1369Z" fill="white"/>
<path d="M129.392 50.5914V51.0518H127.996V53.2811C127.996 53.6611 128.004 54.1216 128.501 54.1216C128.917 54.1216 129.173 53.7781 129.327 53.4345L129.853 53.5661C129.59 54.1289 129.144 54.5821 128.486 54.5821C127.85 54.5821 127.448 54.2751 127.448 53.1056V51.0518H126.608V50.5914H127.448V49.3927H127.996V50.5914H129.392Z" fill="white"/>
<path d="M122.854 51.2638L122.73 50.7814C123.102 50.6352 123.446 50.511 123.855 50.511C124.601 50.511 125.054 51.1249 125.054 51.7754V53.4711C125.054 53.8292 125.105 54.1947 125.222 54.5309L124.71 54.5967L124.571 54.107C124.308 54.4213 124.009 54.5821 123.599 54.5821C122.854 54.5821 122.437 53.9973 122.437 53.303C122.437 52.5502 122.898 51.8924 123.687 51.8924C123.979 51.8924 124.257 51.9801 124.506 52.0824V51.7096C124.506 51.2784 124.242 50.9714 123.833 50.9714C123.49 50.9714 123.168 51.1322 122.854 51.2638ZM124.506 53.4492V52.5429C124.272 52.4405 124.023 52.3528 123.76 52.3528C123.205 52.3528 122.985 52.8352 122.985 53.3322C122.985 53.6977 123.175 54.1216 123.599 54.1216C124.023 54.1216 124.279 53.7635 124.506 53.4492Z" fill="white"/>
<path d="M119.414 54.5017V51.0518H118.303V50.5914H119.962V54.5017H119.414ZM119.67 49.1369C119.926 49.1369 120.13 49.3342 120.13 49.5973C120.13 49.8605 119.926 50.0578 119.67 50.0578C119.414 50.0578 119.209 49.8605 119.209 49.5973C119.209 49.3342 119.414 49.1369 119.67 49.1369Z" fill="white"/>
<path d="M116.815 54.5163L116.296 54.5821L116.179 54.1435C115.85 54.4359 115.675 54.5821 115.222 54.5821C114.535 54.5821 113.657 54.0558 113.657 52.5209C113.657 51.0299 114.608 50.511 115.244 50.511C115.572 50.511 115.799 50.5914 116.069 50.7375V49.0784H116.618V53.1056C116.618 53.588 116.661 54.0704 116.815 54.5163ZM116.069 53.4492V51.293C115.857 51.1176 115.609 50.9714 115.331 50.9714C114.747 50.9714 114.206 51.4611 114.206 52.5429C114.206 53.8146 114.871 54.1216 115.236 54.1216C115.66 54.1216 115.923 53.8073 116.069 53.4492Z" fill="white"/>
<path d="M112.564 52.689H109.962C109.991 53.7635 110.474 54.1216 111.073 54.1216C111.504 54.1216 111.935 53.9242 112.294 53.705L112.527 54.1947C112.038 54.4139 111.57 54.5821 111.029 54.5821C109.874 54.5821 109.414 53.588 109.414 52.5721C109.414 51.5488 109.889 50.511 111.058 50.511C112.359 50.511 112.564 51.9654 112.564 52.3894V52.689ZM109.955 52.2286H112.016C111.994 51.5854 111.628 50.9714 111.014 50.9714C110.401 50.9714 110.101 51.4392 109.955 52.2286ZM111.577 48.8372L111.972 49.2904L110.561 50.2332L110.284 49.8751L111.577 48.8372Z" fill="white"/>
<path d="M104.966 54.5017V51.8046C104.966 51.2711 104.892 50.9203 104.805 50.511H105.353L105.433 50.8618C105.667 50.6571 105.872 50.511 106.201 50.511C106.559 50.511 106.654 50.5987 106.866 50.8691C107.092 50.6644 107.297 50.511 107.619 50.511C108.145 50.511 108.481 50.8545 108.481 51.3807V54.5017H107.933V51.3807C107.933 51.1176 107.794 50.9714 107.575 50.9714C107.326 50.9714 107.114 51.1761 106.997 51.3807V54.5017H106.449V51.4173C106.449 51.2126 106.391 50.9714 106.142 50.9714C105.879 50.9714 105.616 51.2053 105.514 51.4465V54.5017H104.966Z" fill="white"/>
</g>
<g id="logo-tmn-lab-vector">
<path d="M0.984131 0H4.97084V3.98671H0.984131V0Z" fill="#5E2659"/>
<path d="M0.984131 5.31561H4.97084V9.30233H0.984131V5.31561Z" fill="#5E2659"/>
<path d="M6.29975 0H10.2865V3.98671H6.29975V0Z" fill="#5E2659"/>
<path d="M6.29975 5.31561H10.2865V9.30233H6.29975V5.31561Z" fill="#5E2659"/>
<path d="M11.6154 0H15.6021V3.98671H11.6154V0Z" fill="#5E2659"/>
<path d="M11.6154 5.31561H15.6021V9.30233H11.6154V5.31561Z" fill="#5E2659"/>
<path d="M16.931 0H20.9177V3.98671H16.931V0Z" fill="#5E2659"/>
<path d="M16.931 5.31561H20.9177V9.30233H16.931V5.31561Z" fill="#5E2659"/>
<path d="M22.2466 0H26.2333V3.98671H22.2466V0Z" fill="#5E2659"/>
<path d="M22.2466 5.31561H26.2333V9.30233H22.2466V5.31561Z" fill="#5E2659"/>
<path d="M27.5622 0H31.5489V3.98671H27.5622V0Z" fill="#5E2659"/>
<path d="M27.5622 5.31561H31.5489V9.30233H27.5622V5.31561Z" fill="#5E2659"/>
<path d="M11.6154 10.6312H15.6021V14.6179H11.6154V10.6312Z" fill="#58BED3"/>
<path d="M11.6154 15.9468H15.6021V19.9336H11.6154V15.9468Z" fill="#58BED3"/>
<path d="M16.931 10.6312H20.9177V14.6179H16.931V10.6312Z" fill="#58BED3"/>
<path d="M16.931 15.9468H20.9177V19.9336H16.931V15.9468Z" fill="#58BED3"/>
<path d="M11.6154 21.2625H15.6021V25.2492H11.6154V21.2625Z" fill="#CF6720"/>
<path d="M11.6154 26.5781H15.6021V30.5648H11.6154V26.5781Z" fill="#CF6720"/>
<path d="M16.931 21.2625H20.9177V25.2492H16.931V21.2625Z" fill="#CF6720"/>
<path d="M16.931 26.5781H20.9177V30.5648H16.931V26.5781Z" fill="#CF6720"/>
<path d="M11.6154 31.8937H15.6021V35.8804H11.6154V31.8937Z" fill="#BC619F"/>
<path d="M11.6154 37.2093H15.6021V41.196H11.6154V37.2093Z" fill="#BC619F"/>
<path d="M16.931 31.8937H20.9177V35.8804H16.931V31.8937Z" fill="#BC619F"/>
<path d="M16.931 37.2093H20.9177V41.196H16.931V37.2093Z" fill="#BC619F"/>
<path d="M38.1934 0H42.1801V3.98671H38.1934V0Z" fill="#5E2659"/>
<path d="M38.1934 5.31561H42.1801V9.30233H38.1934V5.31561Z" fill="#5E2659"/>
<path d="M43.509 5.31561H47.4958V9.30233H43.509V5.31561Z" fill="#5E2659"/>
<path d="M75.4027 5.31561H79.3894V9.30233H75.4027V5.31561Z" fill="#5E2659"/>
<path d="M80.7183 5.31561H84.7051V9.30233H80.7183V5.31561Z" fill="#5E2659"/>
<path d="M80.7183 0H84.7051V3.98671H80.7183V0Z" fill="#5E2659"/>
<path d="M43.509 10.6312H47.4958V14.6179H43.509V10.6312Z" fill="#58BED3"/>
<path d="M48.8247 10.6312H52.8114V14.6179H48.8247V10.6312Z" fill="#58BED3"/>
<path d="M48.8247 15.9468H52.8114V19.9336H48.8247V15.9468Z" fill="#58BED3"/>
<path d="M54.1403 15.9468H58.127V19.9336H54.1403V15.9468Z" fill="#58BED3"/>
<path d="M64.7715 15.9468H68.7582V19.9336H64.7715V15.9468Z" fill="#58BED3"/>
<path d="M70.0871 15.9468H74.0738V19.9336H70.0871V15.9468Z" fill="#58BED3"/>
<path d="M75.4027 15.9468H79.3894V19.9336H75.4027V15.9468Z" fill="#58BED3"/>
<path d="M75.4027 10.6312H79.3894V14.6179H75.4027V10.6312Z" fill="#58BED3"/>
<path d="M80.7183 15.9468H84.7051V19.9336H80.7183V15.9468Z" fill="#58BED3"/>
<path d="M80.7183 10.6312H84.7051V14.6179H80.7183V10.6312Z" fill="#58BED3"/>
<path d="M70.0871 10.6312H74.0738V14.6179H70.0871V10.6312Z" fill="#58BED3"/>
<path d="M43.509 15.9468H47.4958V19.9336H43.509V15.9468Z" fill="#58BED3"/>
<path d="M38.1934 10.6312H42.1801V14.6179H38.1934V10.6312Z" fill="#58BED3"/>
<path d="M38.1934 15.9468H42.1801V19.9336H38.1934V15.9468Z" fill="#58BED3"/>
<path d="M54.1403 21.2625H58.127V25.2492H54.1403V21.2625Z" fill="#CF6720"/>
<path d="M59.4559 21.2625H63.4426V25.2492H59.4559V21.2625Z" fill="#CF6720"/>
<path d="M64.7715 21.2625H68.7582V25.2492H64.7715V21.2625Z" fill="#CF6720"/>
<path d="M75.4027 21.2625H79.3894V25.2492H75.4027V21.2625Z" fill="#CF6720"/>
<path d="M75.4027 26.5781H79.3894V30.5648H75.4027V26.5781Z" fill="#CF6720"/>
<path d="M80.7183 21.2625H84.7051V25.2492H80.7183V21.2625Z" fill="#CF6720"/>
<path d="M80.7183 26.5781H84.7051V30.5648H80.7183V26.5781Z" fill="#CF6720"/>
<path d="M59.4559 26.5781H63.4426V30.5648H59.4559V26.5781Z" fill="#CF6720"/>
<path d="M43.509 21.2625H47.4958V25.2492H43.509V21.2625Z" fill="#CF6720"/>
<path d="M43.509 26.5781H47.4958V30.5648H43.509V26.5781Z" fill="#CF6720"/>
<path d="M38.1934 21.2625H42.1801V25.2492H38.1934V21.2625Z" fill="#CF6720"/>
<path d="M38.1934 26.5781H42.1801V30.5648H38.1934V26.5781Z" fill="#CF6720"/>
<path d="M75.4027 31.8937H79.3894V35.8804H75.4027V31.8937Z" fill="#BC619F"/>
<path d="M75.4027 37.2093H79.3894V41.196H75.4027V37.2093Z" fill="#BC619F"/>
<path d="M80.7183 31.8937H84.7051V35.8804H80.7183V31.8937Z" fill="#BC619F"/>
<path d="M80.7183 37.2093H84.7051V41.196H80.7183V37.2093Z" fill="#BC619F"/>
<path d="M43.509 31.8937H47.4958V35.8804H43.509V31.8937Z" fill="#BC619F"/>
<path d="M43.509 37.2093H47.4958V41.196H43.509V37.2093Z" fill="#BC619F"/>
<path d="M38.1934 31.8937H42.1801V35.8804H38.1934V31.8937Z" fill="#BC619F"/>
<path d="M38.1934 37.2093H42.1801V41.196H38.1934V37.2093Z" fill="#BC619F"/>
<path d="M91.3496 0H95.3363V3.98671H91.3496V0Z" fill="#5E2659"/>
<path d="M91.3496 5.31561H95.3363V9.30233H91.3496V5.31561Z" fill="#5E2659"/>
<path d="M96.6652 5.31561H100.652V9.30233H96.6652V5.31561Z" fill="#5E2659"/>
<path d="M117.928 5.31561H121.914V9.30233H117.928V5.31561Z" fill="#5E2659"/>
<path d="M117.928 0H121.914V3.98671H117.928V0Z" fill="#5E2659"/>
<path d="M123.243 5.31561H127.23V9.30233H123.243V5.31561Z" fill="#5E2659"/>
<path d="M123.243 0H127.23V3.98671H123.243V0Z" fill="#5E2659"/>
<path d="M91.3496 10.6312H95.3363V14.6179H91.3496V10.6312Z" fill="#58BED3"/>
<path d="M91.3496 15.9468H95.3363V19.9336H91.3496V15.9468Z" fill="#58BED3"/>
<path d="M96.6652 10.6312H100.652V14.6179H96.6652V10.6312Z" fill="#58BED3"/>
<path d="M96.6652 15.9468H100.652V19.9336H96.6652V15.9468Z" fill="#58BED3"/>
<path d="M101.981 10.6312H105.968V14.6179H101.981V10.6312Z" fill="#58BED3"/>
<path d="M101.981 15.9468H105.968V19.9336H101.981V15.9468Z" fill="#58BED3"/>
<path d="M107.296 15.9468H111.283V19.9336H107.296V15.9468Z" fill="#58BED3"/>
<path d="M117.928 15.9468H121.914V19.9336H117.928V15.9468Z" fill="#58BED3"/>
<path d="M117.928 10.6312H121.914V14.6179H117.928V10.6312Z" fill="#58BED3"/>
<path d="M123.243 15.9468H127.23V19.9336H123.243V15.9468Z" fill="#58BED3"/>
<path d="M123.243 10.6312H127.23V14.6179H123.243V10.6312Z" fill="#58BED3"/>
<path d="M91.3496 21.2625H95.3363V25.2492H91.3496V21.2625Z" fill="#CF6720"/>
<path d="M91.3496 26.5781H95.3363V30.5648H91.3496V26.5781Z" fill="#CF6720"/>
<path d="M96.6652 21.2625H100.652V25.2492H96.6652V21.2625Z" fill="#CF6720"/>
<path d="M96.6652 26.5781H100.652V30.5648H96.6652V26.5781Z" fill="#CF6720"/>
<path d="M107.296 21.2625H111.283V25.2492H107.296V21.2625Z" fill="#CF6720"/>
<path d="M112.612 21.2625H116.599V25.2492H112.612V21.2625Z" fill="#CF6720"/>
<path d="M112.612 26.5781H116.599V30.5648H112.612V26.5781Z" fill="#CF6720"/>
<path d="M117.928 21.2625H121.914V25.2492H117.928V21.2625Z" fill="#CF6720"/>
<path d="M117.928 26.5781H121.914V30.5648H117.928V26.5781Z" fill="#CF6720"/>
<path d="M123.243 21.2625H127.23V25.2492H123.243V21.2625Z" fill="#CF6720"/>
<path d="M123.243 26.5781H127.23V30.5648H123.243V26.5781Z" fill="#CF6720"/>
<path d="M91.3496 31.8937H95.3363V35.8804H91.3496V31.8937Z" fill="#BC619F"/>
<path d="M91.3496 37.2093H95.3363V41.196H91.3496V37.2093Z" fill="#BC619F"/>
<path d="M96.6652 31.8937H100.652V35.8804H96.6652V31.8937Z" fill="#BC619F"/>
<path d="M96.6652 37.2093H100.652V41.196H96.6652V37.2093Z" fill="#BC619F"/>
<path d="M117.928 31.8937H121.914V35.8804H117.928V31.8937Z" fill="#BC619F"/>
<path d="M123.243 31.8937H127.23V35.8804H123.243V31.8937Z" fill="#BC619F"/>
<path d="M123.243 37.2093H127.23V41.196H123.243V37.2093Z" fill="#BC619F"/>
<path d="M142.383 41.196V2.18837H133.874V0H144.947V41.196H142.383Z" fill="#5E2659"/>
<path d="M170.398 40.8678L168.053 41.196C167.507 39.6094 167.126 37.9135 166.962 36.2722C164.944 39.1718 162.817 41.196 159.053 41.196C153.762 41.196 151.035 36.874 151.035 32.0049C151.035 26.4792 154.144 21.7195 159.707 21.7195C162.053 21.7195 164.726 22.6496 166.744 23.6344C166.907 16.3033 165.598 13.2396 160.853 13.2396C158.344 13.2396 156.217 14.115 153.926 15.1544L153.326 12.8019C155.835 11.8172 158.289 11.0513 161.017 11.0513C166.307 11.0513 169.471 14.7715 169.307 21.2272L168.98 33.0443C168.926 35.8345 169.635 38.4606 170.398 40.8678ZM166.58 33.1538V25.6586C164.78 24.7285 162.598 23.9079 160.307 23.9079C155.508 23.9079 153.598 27.9564 153.598 32.2237C153.598 35.4515 155.398 39.0076 159.053 39.0076C162.653 39.0076 164.835 36.1081 166.58 33.1538Z" fill="#5E2659"/>
<path d="M175.831 0H178.395V13.5132C180.359 11.9266 182.922 11.0513 185.486 11.0513C189.468 11.0513 196.831 14.3338 196.831 25.9321C196.831 37.2022 190.45 41.196 185.65 41.196C182.268 41.196 179.486 39.4453 177.959 36.4363L176.922 41.196L174.522 40.8678C175.559 37.4758 175.831 33.9744 175.831 30.4183V0ZM178.395 16.0845V33.2085C179.813 36.3269 181.777 39.0076 185.595 39.0076C188.868 39.0076 194.268 36.1628 194.268 26.0963C194.268 15.4827 188.104 13.2396 184.831 13.2396C182.377 13.2396 180.195 14.4979 178.395 16.0845Z" fill="#5E2659"/>
</g>
</g>
</svg>
